<svg xmlns="http://www.w3.org/2000/svg" viewBox="0 0 121.12 86.13"><defs><style>.cls-1{font-size:21.09px;fill:#fff;font-family:Roboto-Regular, Roboto;letter-spacing:0.01em;}.cls-2{letter-spacing:0em;}.cls-3{letter-spacing:-0.02em;}.cls-4{fill:#007acc;stroke:#007acc;stroke-miterlimit:10;}</style></defs><g id="Layer_2" data-name="Layer 2"><g id="Layer_1-2" data-name="Layer 1"><text class="cls-1" transform="translate(0 18.04)">T<tspan class="cls-2" x="12.75" y="0">YPESCRIP</tspan><tspan class="cls-3" x="108.95" y="0">T</tspan></text><polygon class="cls-4" points="46.59 84.84 35.87 84.84 35.87 42.5 21.16 42.5 21.16 32.98 61.3 32.98 61.3 42.5 46.59 42.5 46.59 84.84"/><path class="cls-4" d="M98.07,41,90.13,46.3c-3.25-5.54-7.2-4.48-7.2-4.48s-4.42.48-4.74,3.89,1.92,4.64,1.92,4.64l1.38,1,4.27,2.07s8.79,3.68,11,6.18,6,5.49,4.1,15.67c0,0-1.76,8.15-12.47,10,0,0-16.09,3.68-24-10.44l8.53-5S77.5,78.53,87.3,75.6c0,0,5.49-2.82,2.45-7.88,0,0-3.19-2.83-6.18-3.52,0,0-13.27-5.06-14.33-10.28,0,0-4.32-10.66,1.92-16.63S91.41,28.55,98.07,41Z"/></g></g></svg>