<svg xmlns="http://www.w3.org/2000/svg" viewBox="0 0 83.61 85.32"><defs><style>.cls-1{fill:#f7f7f7;}</style></defs><g id="Layer_2" data-name="Layer 2"><g id="Layer_1-2" data-name="Layer 1"><polygon class="cls-1" points="6.76 68.46 6.76 65.44 10.94 65.44 9.91 68.42 6.76 68.46"/><polyline class="cls-1" points="4.22 79.5 6.04 69.98 9.87 70.03"/><path class="cls-1" d="M4.22,79.51,2.7,81.64h-2L0,85.11s4.26.57,5.25-.16A7.11,7.11,0,0,0,7,82.68L9.87,70"/><path class="cls-1" d="M28.54,68.83a9.93,9.93,0,0,0-1.34-4.52c-.26-.43-2.11-2.36-3.65-2.52s-5.8,0-7.33,1c-1.47.75-2.39,2.61-3.24,4.12s-1.52,5.92-1.52,5.92a7,7,0,0,0,.87,4.4c1.24,1.74.82,1.7,3,2.24s12.13-.37,12.13-.37l1-3.4h-2S28.46,70.7,28.54,68.83Zm-6,7L17,75.68s-3-.69-1.29-5.4,3.25-4.76,3.62-4.89a4.18,4.18,0,0,1,2.56-.21,3.52,3.52,0,0,1,2,1.06,2.88,2.88,0,0,1,.72,2.22C24.57,69.52,22.54,75.81,22.54,75.81Z"/><path class="cls-1" d="M38,76.27c.69-.46,2.19-10.7,2.19-10.7l3.52-.16s-2.06,13-3,13.82-8.1.23-8.61,0a2.87,2.87,0,0,1-1.8-1.66,8.24,8.24,0,0,1-.19-3.17l1.47-8.83,3.65.13s-1.34,4.86-1.47,6.13-.52,3.91.13,4.37A6.52,6.52,0,0,0,38,76.27Z"/><path class="cls-1" d="M47.83,73.46c.6-.39,8.87,0,8.87,0s1.17-4.61.65-5.57a5,5,0,0,0-3.44-2.44,6.17,6.17,0,0,0-4.87.27,8.6,8.6,0,0,0-3.82,3.66c-1.48,2.3-1.48,6.08-1.48,6.08a5.43,5.43,0,0,0,.78,2.3c.74,1.26,1.39,1.48,1.39,1.48l9.39.13.83-3.09-7.43.18a2.2,2.2,0,0,1-1.35-1.22C47,74.24,47.22,73.85,47.83,73.46ZM49.48,69A2,2,0,0,1,51,68c1.91,0,1.78,0,2.22.92a6.18,6.18,0,0,1,.52,1.8H48.26Z"/><polygon class="cls-1" points="63.56 68.64 61.41 79.33 57.96 79.33 60.83 65.41 70.61 65.41 72.37 68.83 63.56 68.64"/><polygon class="cls-1" points="83.61 63.42 79.13 63.55 73.13 72.19 72.56 70.24 72.37 70.24 68.39 70.24 69.91 74.59 69.35 79.16 73.39 79.16 75.96 73.64 83.61 63.42"/><path class="cls-1" d="M70.48,39.64S56.91,65.05,27.91,49.72c-11.65-6.16-15.14-20.55-15.34-22-1.64-11.54,5.6-21.19,5.6-21.19S10.48,29.67,33.43,42.37,70.48,39.64,70.48,39.64Z"/><path class="cls-1" d="M70.48,25.63s-9.43,17.66-29.58,7c-8.09-4.28-10.51-14.28-10.65-15.27-1.14-8,3.89-14.72,3.89-14.72S28.8,18.71,44.74,27.53,70.48,25.63,70.48,25.63Z"/><path class="cls-1" d="M67.91,12.69s-5.21,9.75-16.34,3.87c-4.46-2.36-5.8-7.88-5.88-8.43A12.13,12.13,0,0,1,47.84,0,11.65,11.65,0,0,0,53.7,13.74C62.5,18.61,67.91,12.69,67.91,12.69Z"/></g></g></svg>