<svg xmlns="http://www.w3.org/2000/svg" viewBox="0 0 60 44.88"><defs><style>.cls-1{fill:#f7f7f7;}</style></defs><g id="Layer_2" data-name="Layer 2"><g id="Layer_1-2" data-name="Layer 1"><path class="cls-1" d="M29.88,8.19a12.83,12.83,0,0,0-6.4-6.28C18.92,0,18.4.37,15.67,0L.3.15S0,.09,0,.34V43.73s-.09.17.2.23,8.38,0,8.38,0,.4-.2.39-.44S9,30.05,9,30.05s14.21,1.22,18.94-5.32a12.8,12.8,0,0,0,3.13-6.29S32.22,12.48,29.88,8.19Zm-8,9.45c-1.31,4.21-7.7,4.55-7.7,4.55H9V8.1l7,.25a7.32,7.32,0,0,1,3.87,1.43C23.85,12.64,21.88,17.64,21.88,17.64Z"/><path class="cls-1" d="M35.81,34.68v8S47.6,48.6,57.4,40.94a10.25,10.25,0,0,0,2.5-8.33S59.75,27,50.74,24c0,0-6.57-2.08-6.21-4.06,0,0-.54-2.44,4.06-2.29,0,0,5.44-.07,8.74,2,0,0,1,.36,1-1L58.23,12a.8.8,0,0,0-.78-.57s-11.4-3.15-16.79.78a9.5,9.5,0,0,0,.15,16.65,40.49,40.49,0,0,0,6.32,2.85s3.48,1.35,3.69,2.49c0,0,1,2.34-2.25,2.82,0,0-7.06.93-12.26-2.46A.34.34,0,0,0,35.81,34.68Z"/></g></g></svg>