<svg xmlns="http://www.w3.org/2000/svg" viewBox="0 0 45 20.45"><defs><style>.cls-1{fill:none;}.cls-2{fill:#fff;}.cls-3{fill:#e8e8e8;}</style></defs><g id="Layer_2" data-name="Layer 2"><g id="Layer_1-2" data-name="Layer 1"><path class="cls-1" d="M29.81,10.23a8.39,8.39,0,0,1-3.16,6.28A13.7,13.7,0,0,0,30.1,17c5.41,0,9.79-3,9.79-6.72S35.51,3.51,30.1,3.51a14.17,14.17,0,0,0-3.45.43A8.42,8.42,0,0,1,29.81,10.23Z"/><ellipse class="cls-1" cx="22.5" cy="10.23" rx="2.2" ry="4.24"/><path class="cls-1" d="M15.19,10.23a8.42,8.42,0,0,1,3.16-6.29,14.17,14.17,0,0,0-3.45-.43c-5.41,0-9.79,3-9.79,6.72S9.49,17,14.9,17a13.7,13.7,0,0,0,3.45-.44A8.39,8.39,0,0,1,15.19,10.23Z"/><path class="cls-2" d="M22.5,1.43a14.67,14.67,0,0,1,4.15,2.51,14.17,14.17,0,0,1,3.45-.43c5.41,0,9.79,3,9.79,6.72S35.51,17,30.1,17a13.7,13.7,0,0,1-3.45-.44,10.62,10.62,0,0,1-4.15-2,5.62,5.62,0,0,1-2.2-4.24A5.6,5.6,0,0,1,22.5,6a10.5,10.5,0,0,0-4.15-2.05,8.42,8.42,0,0,0-3.16,6.29,8.39,8.39,0,0,0,3.16,6.28A14.69,14.69,0,0,0,22.5,19a20.37,20.37,0,0,0,7.6,1.42c8.23,0,14.9-4.57,14.9-10.22S38.33,0,30.1,0A20.18,20.18,0,0,0,22.5,1.43Z"/><path class="cls-3" d="M0,10.23c0,5.65,6.67,10.22,14.9,10.22A20.37,20.37,0,0,0,22.5,19a14.69,14.69,0,0,1-4.15-2.52A13.7,13.7,0,0,1,14.9,17c-5.41,0-9.79-3-9.79-6.72S9.49,3.51,14.9,3.51a14.17,14.17,0,0,1,3.45.43A10.5,10.5,0,0,1,22.5,6a5.6,5.6,0,0,1,2.2,4.24,5.62,5.62,0,0,1-2.2,4.24,10.62,10.62,0,0,0,4.15,2,8.39,8.39,0,0,0,3.16-6.28,8.42,8.42,0,0,0-3.16-6.29A14.67,14.67,0,0,0,22.5,1.43,20.18,20.18,0,0,0,14.9,0C6.67,0,0,4.58,0,10.23Z"/></g></g></svg>