<svg xmlns="http://www.w3.org/2000/svg" viewBox="0 0 60 51.2"><defs><style>.cls-1{fill:#f7f7f7;}</style></defs><g id="Layer_2" data-name="Layer 2"><g id="Layer_1-2" data-name="Layer 1"><path class="cls-1" d="M44.41,50.39,28,4.11c-.17-.61-.39-.44-.39-.44H15.75s-.5,0-.35.19a21.71,21.71,0,0,1-.29,3.2L0,50.69a.48.48,0,0,0,.19.51h9.1c.59-.25.59-.53.59-.53L13.34,40,30.18,40l3.55,10.46c.17.61.47.72.47.72h9.91C44.75,51.17,44.41,50.39,44.41,50.39ZM16,30.67c.62-1.71,6-17.35,6-17.35l5.42,17.35Z"/><path class="cls-1" d="M54.63,0s-5.07-.15-5.81,4.55c0,0-1.12,6.56,5.81,6.86A5.7,5.7,0,0,0,60,5.7S60.15.37,54.63,0Z"/><path class="cls-1" d="M49.63,15.13H59a.69.69,0,0,1,.41.66v35s0,.35-.51.43H49.63a.52.52,0,0,1-.37-.49V15.58S49.28,15.13,49.63,15.13Z"/></g></g></svg>