<svg xmlns="http://www.w3.org/2000/svg" viewBox="0 0 20.45 45"><defs><style>.cls-1{fill:none;}.cls-2{fill:#333;}.cls-3{fill:#757575;}</style></defs><g id="Layer_2" data-name="Layer 2"><g id="Layer_1-2" data-name="Layer 1"><path class="cls-1" d="M10.23,29.81a8.42,8.42,0,0,1-6.29-3.16,14.17,14.17,0,0,0-.43,3.45c0,5.41,3,9.79,6.72,9.79S17,35.51,17,30.1a13.7,13.7,0,0,0-.44-3.45A8.39,8.39,0,0,1,10.23,29.81Z"/><ellipse class="cls-1" cx="10.23" cy="22.5" rx="4.24" ry="2.2"/><path class="cls-1" d="M10.23,15.19a8.39,8.39,0,0,1,6.28,3.16A13.7,13.7,0,0,0,17,14.9c0-5.41-3-9.79-6.72-9.79S3.51,9.49,3.51,14.9a14.17,14.17,0,0,0,.43,3.45A8.42,8.42,0,0,1,10.23,15.19Z"/><path class="cls-2" d="M19,22.5a14.69,14.69,0,0,1-2.52,4.15A13.7,13.7,0,0,1,17,30.1c0,5.41-3,9.79-6.72,9.79S3.51,35.51,3.51,30.1a14.17,14.17,0,0,1,.43-3.45A10.5,10.5,0,0,1,6,22.5a5.6,5.6,0,0,1,4.24-2.2,5.62,5.62,0,0,1,4.24,2.2,10.62,10.62,0,0,0,2-4.15,8.39,8.39,0,0,0-6.28-3.16,8.42,8.42,0,0,0-6.29,3.16A14.67,14.67,0,0,0,1.43,22.5,20.18,20.18,0,0,0,0,30.1C0,38.33,4.58,45,10.23,45s10.22-6.67,10.22-14.9A20.37,20.37,0,0,0,19,22.5Z"/><path class="cls-3" d="M10.23,0C4.58,0,0,6.67,0,14.9a20.18,20.18,0,0,0,1.43,7.6,14.67,14.67,0,0,1,2.51-4.15,14.17,14.17,0,0,1-.43-3.45c0-5.41,3-9.79,6.72-9.79S17,9.49,17,14.9a13.7,13.7,0,0,1-.44,3.45,10.62,10.62,0,0,1-2,4.15,5.62,5.62,0,0,1-4.24,2.2A5.6,5.6,0,0,1,6,22.5a10.5,10.5,0,0,0-2.05,4.15,8.42,8.42,0,0,0,6.29,3.16,8.39,8.39,0,0,0,6.28-3.16A14.69,14.69,0,0,0,19,22.5a20.37,20.37,0,0,0,1.42-7.6C20.45,6.67,15.88,0,10.23,0Z"/></g></g></svg>