<svg xmlns="http://www.w3.org/2000/svg" viewBox="0 0 95.03 95.06"><defs><style>.cls-1{font-size:10px;fill:#fff;font-family:Roboto-Regular, Roboto;}</style></defs><g id="Layer_2" data-name="Layer 2"><g id="레이어_1" data-name="레이어 1"><text class="cls-1" transform="translate(47.36 8.42) rotate(4.53)">C</text><text class="cls-1" transform="matrix(0.98, 0.19, -0.19, 0.98, 53.65, 9.02)"> </text><text class="cls-1" transform="matrix(0.95, 0.3, -0.3, 0.95, 55.92, 9.31)">O</text><text class="cls-1" transform="translate(62.21 11.41) rotate(24.02)"> </text><text class="cls-1" transform="matrix(0.85, 0.53, -0.53, 0.85, 64.35, 12.11)">M</text><text class="cls-1" transform="matrix(0.77, 0.64, -0.64, 0.77, 71.45, 16.76)"> </text><text class="cls-1" transform="translate(73.28 18.12) rotate(45.98)">U</text><text class="cls-1" transform="matrix(0.61, 0.79, -0.79, 0.61, 77.57, 22.71)"> </text><text class="cls-1" transform="translate(79.07 24.4) rotate(58.93)">N</text><text class="cls-1" transform="translate(82.53 30.38) rotate(65.67)"> </text><text class="cls-1" transform="translate(83.51 32.54) rotate(69.36)">I</text><text class="cls-1" transform="translate(84.42 34.94) rotate(72.99)"> </text><text class="cls-1" transform="translate(85.21 37.09) rotate(79.33)">C</text><text class="cls-1" transform="translate(86.28 43.32) rotate(85.65)"> </text><text class="cls-1" transform="translate(86.57 45.58) rotate(91.86)">A</text><text class="cls-1" transform="translate(86.27 51.87) rotate(98.1)"> </text><text class="cls-1" transform="matrix(-0.24, 0.97, -0.97, -0.24, 86.07, 53.96)">T</text><text class="cls-1" transform="translate(84.68 59.38) rotate(109.45)"> </text><text class="cls-1" transform="matrix(-0.44, 0.9, -0.9, -0.44, 84.06, 61.56)">O</text><text class="cls-1" transform="matrix(-0.54, 0.84, -0.84, -0.54, 81.02, 67.51)"> </text><text class="cls-1" transform="translate(79.89 69.48) rotate(128.63)">R</text><text class="cls-1" transform="translate(76.1 74.08) rotate(134.66)"> </text><text class="cls-1" transform="matrix(-0.74, 0.67, -0.67, -0.74, 74.43, 75.77)"> </text><text class="cls-1" transform="translate(72.69 77.34) rotate(141.54)"> </text><text class="cls-1" transform="matrix(-0.82, 0.57, -0.57, -0.82, 70.83, 78.82)"> </text><text class="cls-1" transform="translate(68.91 80.17) rotate(148.46)"> </text><text class="cls-1" transform="translate(66.9 81.4) rotate(151.92)"> </text><text class="cls-1" transform="translate(64.89 82.53) rotate(156.68)">*</text><text class="cls-1" transform="matrix(-0.95, 0.32, -0.32, -0.95, 61.05, 84.15)"> </text><text class="cls-1" transform="translate(58.83 84.9) rotate(164.95)"> </text><text class="cls-1" transform="matrix(-0.98, 0.2, -0.2, -0.98, 56.56, 85.51)"> </text><text class="cls-1" transform="matrix(-0.99, 0.14, -0.14, -0.99, 54.25, 85.99)"> </text><text class="cls-1" transform="translate(51.9 86.33) rotate(175.38)"> </text><text class="cls-1" transform="matrix(-1, 0.02, -0.02, -1, 49.57, 86.52)"> </text><text class="cls-1" transform="translate(47.29 86.69) rotate(-175.01)">C</text><text class="cls-1" transform="translate(41.02 86.04) rotate(-168.7)"> </text><text class="cls-1" transform="translate(38.76 85.73) rotate(-162.1)">O</text><text class="cls-1" transform="translate(32.45 83.57) rotate(-155.5)"> </text><text class="cls-1" transform="matrix(-0.84, -0.54, 0.54, -0.84, 30.32, 82.86)">M</text><text class="cls-1" transform="matrix(-0.76, -0.65, 0.65, -0.76, 23.28, 78.17)"> </text><text class="cls-1" transform="translate(21.44 76.77) rotate(-133.55)">U</text><text class="cls-1" transform="matrix(-0.61, -0.8, 0.8, -0.61, 17.19, 72.15)"> </text><text class="cls-1" transform="translate(15.7 70.44) rotate(-120.59)">N</text><text class="cls-1" transform="translate(12.3 64.44) rotate(-113.85)"> </text><text class="cls-1" transform="translate(11.34 62.3) rotate(-110.2)">I</text><text class="cls-1" transform="translate(10.44 59.85) rotate(-106.52)"> </text><text class="cls-1" transform="translate(9.68 57.72) rotate(-100.22)">C</text><text class="cls-1" transform="matrix(-0.07, -1, 1, -0.07, 8.66, 51.48)"> </text><text class="cls-1" transform="translate(8.38 49.21) rotate(-87.69)">A</text><text class="cls-1" transform="translate(8.73 42.93) rotate(-81.45)"> </text><text class="cls-1" transform="matrix(0.25, -0.97, 0.97, 0.25, 8.95, 40.82)">T</text><text class="cls-1" transform="translate(10.39 35.42) rotate(-70.07)"> </text><text class="cls-1" transform="matrix(0.45, -0.89, 0.89, 0.45, 11.03, 33.24)">O</text><text class="cls-1" transform="matrix(0.55, -0.84, 0.84, 0.55, 14.1, 27.35)"> </text><text class="cls-1" transform="translate(15.26 25.36) rotate(-50.9)">R</text><text class="cls-1" transform="translate(19.09 20.79) rotate(-44.87)"> </text><text class="cls-1" transform="translate(20.75 19.13) rotate(-41.46)"> </text><text class="cls-1" transform="matrix(0.79, -0.62, 0.62, 0.79, 22.52, 17.56)"> </text><text class="cls-1" transform="matrix(0.82, -0.57, 0.57, 0.82, 24.37, 16.11)"> </text><text class="cls-1" transform="translate(26.3 14.78) rotate(-31.11)"> </text><text class="cls-1" transform="translate(28.32 13.56) rotate(-27.64)"> </text><text class="cls-1" transform="matrix(0.92, -0.39, 0.39, 0.92, 30.37, 12.43)">*</text></g></g></svg>