<svg xmlns="http://www.w3.org/2000/svg" viewBox="0 0 95.03 95.06"><defs><style>.cls-1{font-size:10px;}.cls-1,.cls-2{font-family:Roboto-Regular, Roboto;}.cls-2{font-size:6.96px;}</style></defs><g id="Layer_2" data-name="Layer 2"><g id="레이어_1" data-name="레이어 1"><text class="cls-1" transform="translate(47.34 8.3) rotate(6.21)">W</text><text class="cls-1" transform="translate(55.85 9.43) rotate(14.16)"> </text><text class="cls-1" transform="matrix(0.94, 0.34, -0.34, 0.94, 58.11, 9.91)">E</text><text class="cls-1" transform="translate(63.25 11.85) rotate(25.68)"> </text><text class="cls-1" transform="matrix(0.86, 0.52, -0.52, 0.86, 65.35, 12.78)">L</text><text class="cls-1" transform="matrix(0.8, 0.6, -0.6, 0.8, 69.78, 15.53)"> </text><text class="cls-1" transform="translate(71.67 16.84) rotate(42.18)">L</text><text class="cls-1" transform="translate(75.48 20.37) rotate(47.65)"> </text><text class="cls-1" transform="translate(77.06 22.1) rotate(51.07)"> </text><text class="cls-1" transform="translate(78.66 23.72) rotate(58.93)">M</text><text class="cls-1" transform="translate(82.86 31.07) rotate(66.81)"> </text><text class="cls-1" transform="translate(83.87 33.12) rotate(73.17)">A</text><text class="cls-1" transform="matrix(0.18, 0.98, -0.98, 0.18, 85.6, 39.19)"> </text><text class="cls-1" transform="matrix(0.08, 1, -1, 0.08, 86.13, 41.4)">K</text><text class="cls-1" transform="translate(86.5 47.45) rotate(91.63)"> </text><text class="cls-1" transform="translate(86.52 49.76) rotate(97.33)">E</text><text class="cls-1" transform="matrix(-0.23, 0.97, -0.97, -0.23, 85.75, 55.21)"> </text><text class="cls-1" transform="matrix(-0.33, 0.94, -0.94, -0.33, 85.35, 57.44)">R</text><text class="cls-1" transform="translate(83.31 63.05) rotate(115.25)"> </text><text class="cls-1" transform="translate(82.3 65.19) rotate(118.73)"> </text><text class="cls-1" transform="translate(81.17 67.25) rotate(122.19)"> </text><text class="cls-1" transform="matrix(-0.6, 0.8, -0.8, -0.6, 79.98, 69.24)">*</text><text class="cls-1" transform="matrix(-0.66, 0.75, -0.75, -0.66, 77.47, 72.52)"> </text><text class="cls-1" transform="matrix(-0.71, 0.71, -0.71, -0.71, 75.9, 74.3)"> </text><text class="cls-1" transform="translate(74.22 75.97) rotate(138.54)"> </text><text class="cls-1" transform="translate(72.69 77.64) rotate(146.47)">W</text><text class="cls-1" transform="translate(65.43 82.21) rotate(154.4)"> </text><text class="cls-1" transform="translate(63.4 83.28) rotate(160.15)">E</text><text class="cls-1" transform="matrix(-0.97, 0.24, -0.24, -0.97, 58.2, 85.08)"> </text><text class="cls-1" transform="matrix(-0.99, 0.15, -0.15, -0.99, 55.99, 85.72)">L</text><text class="cls-1" transform="matrix(-1, 0.05, -0.05, -1, 50.85, 86.43)"> </text><text class="cls-1" transform="matrix(-1, -0.04, 0.04, -1, 48.54, 86.63)">L</text><text class="cls-1" transform="translate(43.35 86.36) rotate(-172.17)"> </text><text class="cls-1" transform="translate(41.02 86.04) rotate(-168.7)"> </text><text class="cls-1" transform="matrix(-0.94, -0.33, 0.33, -0.94, 38.76, 85.83)">M</text><text class="cls-1" transform="translate(30.83 82.85) rotate(-152.88)"> </text><text class="cls-1" transform="matrix(-0.83, -0.55, 0.55, -0.83, 28.77, 81.93)">A</text><text class="cls-1" transform="matrix(-0.77, -0.64, 0.64, -0.77, 23.54, 78.36)"> </text><text class="cls-1" transform="matrix(-0.7, -0.72, 0.72, -0.7, 21.72, 77)">K</text><text class="cls-1" transform="matrix(-0.62, -0.79, 0.79, -0.62, 17.55, 72.58)"> </text><text class="cls-1" transform="translate(16.06 70.83) rotate(-122.41)">E</text><text class="cls-1" transform="translate(13.17 66.15) rotate(-116.69)"> </text><text class="cls-1" transform="matrix(-0.35, -0.94, 0.94, -0.35, 12.06, 64.18)">R</text><text class="cls-1" transform="translate(10.04 58.56) rotate(-104.52)"> </text><text class="cls-1" transform="translate(9.44 56.27) rotate(-101.03)"> </text><text class="cls-1" transform="translate(8.99 53.96) rotate(-97.56)"> </text><text class="cls-1" transform="matrix(-0.05, -1, 1, -0.05, 8.64, 51.68)">*</text><text class="cls-1" transform="translate(8.46 47.53) rotate(-88.19)"> </text><text class="cls-1" transform="matrix(0.09, -1, 1, 0.09, 8.54, 45.17)"> </text><text class="cls-1" transform="translate(8.75 42.81) rotate(-81.27)"> </text><text class="cls-1" transform="translate(9.01 40.54) rotate(-75.66)">J</text><text class="cls-1" transform="translate(10.4 35.39) rotate(-70.02)"> </text><text class="cls-1" transform="translate(11.19 33.18) rotate(-66.37)">I</text><text class="cls-1" transform="translate(12.24 30.79) rotate(-62.7)"> </text><text class="cls-1" transform="translate(13.19 28.72) rotate(-56.77)">Y</text><text class="cls-1" transform="translate(16.44 23.91) rotate(-50.85)"> </text><text class="cls-1" transform="translate(17.78 22.07) rotate(-44.62)">U</text><text class="cls-1" transform="translate(22.32 17.73) rotate(-38.38)"> </text><text class="cls-1" transform="matrix(0.85, -0.52, 0.52, 0.85, 24.02, 16.19)">N</text><text class="cls-1" transform="translate(29.96 12.68) rotate(-24.9)"> </text><text class="cls-1" transform="translate(32.09 11.69) rotate(-21.43)"> </text><text class="cls-1" transform="translate(34.28 10.82) rotate(-17.94)"> </text><text class="cls-1" transform="translate(36.49 10.06) rotate(-13.13)">*</text><text class="cls-1" transform="translate(40.53 9.15) rotate(-8.37)"> </text><text class="cls-1" transform="translate(42.85 8.81) rotate(-4.94)"> </text><text class="cls-2" transform="translate(45.24 8.61) rotate(-2)"> </text><text class="cls-2" transform="translate(46.84 8.54) rotate(0.93)"> </text></g></g></svg>