<svg xmlns="http://www.w3.org/2000/svg" viewBox="0 0 95.03 95.06"><defs><style>.cls-1{font-size:10px;}.cls-1,.cls-2{font-family:Roboto-Regular, Roboto;}.cls-2{font-size:6.96px;}</style></defs><g id="Layer_2" data-name="Layer 2"><g id="레이어_1" data-name="레이어 1"><text class="cls-1" transform="translate(47.37 8.43) rotate(4.4)">P</text><text class="cls-1" transform="translate(53.47 8.99) rotate(10.58)"> </text><text class="cls-1" transform="translate(55.75 9.34) rotate(16.12)">L</text><text class="cls-1" transform="matrix(0.93, 0.37, -0.37, 0.93, 60.72, 10.83)"> </text><text class="cls-1" transform="translate(62.87 11.59) rotate(27.38)">E</text><text class="cls-1" transform="matrix(0.84, 0.55, -0.55, 0.84, 67.71, 14.18)"> </text><text class="cls-1" transform="matrix(0.77, 0.63, -0.63, 0.77, 69.7, 15.33)">A</text><text class="cls-1" transform="translate(74.5 19.4) rotate(45.64)"> </text><text class="cls-1" transform="translate(76.17 20.97) rotate(51.5)">S</text><text class="cls-1" transform="translate(79.69 25.52) rotate(57.38)"> </text><text class="cls-1" transform="translate(81 27.4) rotate(63.1)">E</text><text class="cls-1" transform="translate(83.42 32.32) rotate(68.83)"> </text><text class="cls-1" transform="matrix(0.3, 0.95, -0.95, 0.3, 84.27, 34.52)"> </text><text class="cls-1" transform="translate(85.09 36.68) rotate(78.7)">C</text><text class="cls-1" transform="translate(86.22 42.86) rotate(84.97)"> </text><text class="cls-1" transform="matrix(-0.03, 1, -1, -0.03, 86.56, 45.12)">O</text><text class="cls-1" transform="translate(86.28 51.78) rotate(97.97)"> </text><text class="cls-1" transform="matrix(-0.25, 0.97, -0.97, -0.25, 86.11, 54.03)">N</text><text class="cls-1" transform="translate(84.24 60.67) rotate(111.48)"> </text><text class="cls-1" transform="matrix(-0.46, 0.89, -0.89, -0.46, 83.56, 62.68)">T</text><text class="cls-1" transform="matrix(-0.54, 0.84, -0.84, -0.54, 80.96, 67.61)"> </text><text class="cls-1" transform="translate(79.82 69.6) rotate(129.1)">A</text><text class="cls-1" transform="matrix(-0.71, 0.7, -0.7, -0.71, 75.77, 74.43)"> </text><text class="cls-1" transform="matrix(-0.78, 0.62, -0.62, -0.78, 74.23, 76.12)">C</text><text class="cls-1" transform="translate(69.23 79.96) rotate(147.9)"> </text><text class="cls-1" transform="matrix(-0.9, 0.45, -0.45, -0.9, 67.51, 81.16)">T</text><text class="cls-1" transform="translate(62.47 83.59) rotate(159.23)"> </text><text class="cls-1" transform="translate(60.46 84.6) rotate(167.14)">M</text><text class="cls-1" transform="translate(52.15 86.3) rotate(175.01)"> </text><text class="cls-1" transform="translate(49.88 86.6) rotate(-179.07)">E</text><text class="cls-1" transform="translate(44.39 86.45) rotate(-173.7)"> </text><text class="cls-1" transform="matrix(-0.98, -0.19, 0.19, -0.98, 42.09, 86.24)">*</text><text class="cls-1" transform="translate(38.03 85.42) rotate(-164.19)"> </text><text class="cls-1" transform="translate(35.79 85.04) rotate(-156.15)">W</text><text class="cls-1" transform="translate(28.01 81.38) rotate(-148.2)"> </text><text class="cls-1" transform="matrix(-0.78, -0.62, 0.62, -0.78, 26.01, 80.29)">O</text><text class="cls-1" transform="translate(20.84 76.07) rotate(-135.13)"> </text><text class="cls-1" transform="translate(19.15 74.52) rotate(-129.1)">R</text><text class="cls-1" transform="matrix(-0.55, -0.84, 0.84, -0.55, 15.46, 69.86)"> </text><text class="cls-1" transform="translate(14.12 68) rotate(-116.95)">K</text><text class="cls-1" transform="translate(11.46 62.57) rotate(-110.82)"> </text><text class="cls-1" transform="translate(10.61 60.36) rotate(-107.32)"> </text><text class="cls-1" transform="translate(9.89 58.4) rotate(-101.65)">T</text><text class="cls-1" transform="matrix(-0.1, -0.99, 0.99, -0.1, 8.83, 52.89)"> </text><text class="cls-1" transform="translate(8.43 50.68) rotate(-89.07)">O</text><text class="cls-1" transform="translate(8.62 44) rotate(-83.03)"> </text><text class="cls-1" transform="translate(8.76 41.73) rotate(-76.51)">G</text><text class="cls-1" transform="translate(10.42 35.33) rotate(-69.93)"> </text><text class="cls-1" transform="translate(11.12 33.15) rotate(-64.18)">E</text><text class="cls-1" transform="matrix(0.52, -0.85, 0.85, 0.52, 13.57, 28.24)"> </text><text class="cls-1" transform="translate(14.59 26.39) rotate(-52.82)">T</text><text class="cls-1" transform="matrix(0.68, -0.73, 0.73, 0.68, 18.01, 21.98)"> </text><text class="cls-1" transform="matrix(0.76, -0.65, 0.65, 0.76, 19.45, 20.21)">H</text><text class="cls-1" transform="matrix(0.83, -0.56, 0.56, 0.83, 24.77, 15.82)"> </text><text class="cls-1" transform="matrix(0.88, -0.47, 0.47, 0.88, 26.62, 14.47)">E</text><text class="cls-1" transform="translate(31.51 11.94) rotate(-22.36)"> </text><text class="cls-1" transform="translate(33.56 10.98) rotate(-16.3)">R</text><text class="cls-1" transform="translate(39.33 9.39) rotate(-10.17)"> </text><text class="cls-1" transform="translate(41.6 8.94) rotate(-5.44)">*</text><text class="cls-1" transform="translate(45.71 8.58) rotate(-0.93)"> </text><text class="cls-2" transform="translate(48.1 8.55) rotate(2.13)"> </text><text class="cls-2" transform="translate(49.75 8.61) rotate(4.53)"> </text></g></g></svg>