<svg xmlns="http://www.w3.org/2000/svg" viewBox="0 0 95.03 95.06"><defs><style>.cls-1{font-size:10px;}.cls-1,.cls-2{font-family:Roboto-Regular, Roboto;}.cls-2{font-size:6.96px;}</style></defs><g id="Layer_2" data-name="Layer 2"><g id="레이어_1" data-name="레이어 1"><text class="cls-1" transform="translate(47.37 8.43) rotate(4.4)">P</text><text class="cls-1" transform="translate(53.47 8.99) rotate(10.58)"> </text><text class="cls-1" transform="matrix(0.96, 0.29, -0.29, 0.96, 55.72, 9.29)">U</text><text class="cls-1" transform="translate(61.69 11.2) rotate(23.19)"> </text><text class="cls-1" transform="translate(63.85 12.01) rotate(29.34)">B</text><text class="cls-1" transform="translate(69.05 15.03) rotate(35.42)"> </text><text class="cls-1" transform="matrix(0.76, 0.65, -0.65, 0.76, 70.97, 16.3)">L</text><text class="cls-1" transform="matrix(0.69, 0.72, -0.72, 0.69, 74.86, 19.75)"> </text><text class="cls-1" transform="translate(76.48 21.44) rotate(49.95)">I</text><text class="cls-1" transform="translate(78.16 23.44) rotate(53.6)"> </text><text class="cls-1" transform="translate(79.6 25.23) rotate(59.49)">S</text><text class="cls-1" transform="translate(82.44 30.19) rotate(65.36)"> </text><text class="cls-1" transform="matrix(0.31, 0.95, -0.95, 0.31, 83.52, 32.19)">H</text><text class="cls-1" transform="translate(85.52 38.81) rotate(78.93)"> </text><text class="cls-1" transform="translate(86.05 41.04) rotate(84.65)">E</text><text class="cls-1" transform="translate(86.5 46.51) rotate(90.93)"> </text><text class="cls-1" transform="translate(86.58 48.82) rotate(96.3)">R</text><text class="cls-1" transform="translate(85.85 54.71) rotate(102.33)"> </text><text class="cls-1" transform="translate(85.35 57.01) rotate(105.81)"> </text><text class="cls-1" transform="translate(84.8 59.26) rotate(111.48)">J</text><text class="cls-1" transform="translate(82.79 64.18) rotate(117.08)"> </text><text class="cls-1" transform="matrix(-0.51, 0.86, -0.86, -0.51, 81.73, 66.28)">I</text><text class="cls-1" transform="matrix(-0.56, 0.83, -0.83, -0.56, 80.39, 68.53)"> </text><text class="cls-1" transform="matrix(-0.65, 0.76, -0.76, -0.65, 79.18, 70.48)">Y</text><text class="cls-1" transform="translate(75.37 74.85) rotate(136.2)"> </text><text class="cls-1" transform="translate(73.81 76.51) rotate(142.44)">U</text><text class="cls-1" transform="matrix(-0.85, 0.52, -0.52, -0.85, 68.76, 80.27)"> </text><text class="cls-1" transform="translate(66.91 81.57) rotate(155.45)">N</text><text class="cls-1" transform="matrix(-0.95, 0.31, -0.31, -0.95, 60.57, 84.32)"> </text><text class="cls-1" transform="matrix(-0.97, 0.25, -0.25, -0.97, 58.34, 85.04)"> </text><text class="cls-1" transform="translate(56.09 85.66) rotate(170.5)">*</text><text class="cls-1" transform="translate(52 86.32) rotate(175.24)"> </text><text class="cls-1" transform="translate(49.66 86.51) rotate(178.64)"> </text><text class="cls-1" transform="translate(47.38 86.68) rotate(-175.29)">P</text><text class="cls-1" transform="matrix(-0.98, -0.19, 0.19, -0.98, 41.29, 86.08)"> </text><text class="cls-1" transform="translate(39.04 85.78) rotate(-162.81)">U</text><text class="cls-1" transform="translate(33.08 83.83) rotate(-156.5)"> </text><text class="cls-1" transform="matrix(-0.87, -0.49, 0.49, -0.87, 30.93, 83.01)">B</text><text class="cls-1" transform="matrix(-0.81, -0.58, 0.58, -0.81, 25.74, 79.96)"> </text><text class="cls-1" transform="translate(23.83 78.68) rotate(-138.8)">L</text><text class="cls-1" transform="translate(19.96 75.21) rotate(-133.34)"> </text><text class="cls-1" transform="matrix(-0.64, -0.77, 0.77, -0.64, 18.33, 73.5)">I</text><text class="cls-1" transform="translate(16.68 71.51) rotate(-126.1)"> </text><text class="cls-1" transform="matrix(-0.5, -0.86, 0.86, -0.5, 15.25, 69.71)">S</text><text class="cls-1" transform="translate(12.44 64.73) rotate(-114.33)"> </text><text class="cls-1" transform="translate(11.36 62.72) rotate(-107.54)">H</text><text class="cls-1" transform="matrix(-0.19, -0.98, 0.98, -0.19, 9.4, 56.09)"> </text><text class="cls-1" transform="translate(8.88 53.85) rotate(-95.03)">E</text><text class="cls-1" transform="translate(8.46 48.38) rotate(-89.07)"> </text><text class="cls-1" transform="translate(8.39 46.1) rotate(-83.43)">R</text><text class="cls-1" transform="matrix(0.22, -0.98, 0.98, 0.22, 9.16, 40.19)"> </text><text class="cls-1" transform="matrix(0.28, -0.96, 0.96, 0.28, 9.67, 37.89)"> </text><text class="cls-1" transform="matrix(0.37, -0.93, 0.93, 0.37, 10.23, 35.65)">J</text><text class="cls-1" transform="matrix(0.46, -0.89, 0.89, 0.46, 12.26, 30.74)"> </text><text class="cls-1" transform="translate(13.34 28.65) rotate(-58.98)">I</text><text class="cls-1" transform="matrix(0.57, -0.82, 0.82, 0.57, 14.69, 26.4)"> </text><text class="cls-1" transform="matrix(0.65, -0.76, 0.76, 0.65, 15.9, 24.47)">Y</text><text class="cls-1" transform="translate(19.74 20.11) rotate(-43.51)"> </text><text class="cls-1" transform="translate(21.31 18.46) rotate(-37.26)">U</text><text class="cls-1" transform="matrix(0.86, -0.51, 0.51, 0.86, 26.38, 14.73)"> </text><text class="cls-1" transform="matrix(0.91, -0.41, 0.41, 0.91, 28.24, 13.44)">N</text><text class="cls-1" transform="matrix(0.95, -0.3, 0.3, 0.95, 34.59, 10.71)"> </text><text class="cls-1" transform="translate(36.83 10.01) rotate(-13.98)"> </text><text class="cls-1" transform="translate(39.06 9.41) rotate(-9.23)">*</text><text class="cls-2" transform="translate(43.19 8.78) rotate(-4.99)"> </text><text class="cls-2" transform="translate(44.83 8.63) rotate(-2.58)"> </text></g></g></svg>