<svg xmlns="http://www.w3.org/2000/svg" viewBox="0 0 43.4 91.58"><defs><style>.cls-1{fill:#e7a328;}</style></defs><g id="Layer_2" data-name="Layer 2"><g id="Layer_1-2" data-name="Layer 1"><polygon class="cls-1" points="40.76 86.08 43.4 56.79 10.54 56.59 11.92 41.51 32.71 41.51 33.83 51.75 43.4 51.75 41.57 31.27 3.26 31.27 0 66.32 32.71 66.37 31.56 78.59 21.17 81.73 10.39 78.59 9.78 70.95 0 71.03 1.22 86.16 21.17 91.58 40.76 86.08"/><polygon class="cls-1" points="18.99 14.56 7.18 14.56 7.18 9.63 14.02 9.63 14.02 0 18.99 0 18.99 14.56"/><polygon class="cls-1" points="21.51 14.56 21.51 10.47 28.16 10.51 21.51 3.44 21.51 0 34.81 0 34.81 3.86 28.5 3.86 35.08 11 35.34 14.56 35.34 14.56 21.51 14.56"/></g></g></svg>