<svg xmlns="http://www.w3.org/2000/svg" viewBox="0 0 73.25 94.98"><defs><style>.cls-1{font-size:21.09px;font-family:Roboto-Regular, Roboto;}.cls-2{letter-spacing:-0.01em;}.cls-3{letter-spacing:-0.01em;}.cls-4{letter-spacing:-0.02em;}.cls-5{fill:#0c6bad;}</style></defs><g id="Layer_2" data-name="Layer 2"><g id="Layer_1-2" data-name="Layer 1"><text class="cls-1" transform="translate(3.5 18.04)">RE<tspan class="cls-2" x="24.97" y="0">A</tspan><tspan class="cls-3" x="38.61" y="0">C</tspan><tspan class="cls-4" x="52.03" y="0">T</tspan></text><circle class="cls-5" cx="36.19" cy="62.47" r="6.72" transform="translate(-33.57 43.88) rotate(-45)"/><path class="cls-5" d="M73.2,61.3c-.5-4-6.35-8.42-15.34-11.16,2.28-9.79,1.33-17.58-3.49-19.71-3.82-1.69-10.91,1.28-18.1,8-7.61-7.37-15.18-10.76-19.76-6.72C13.9,34,13,41.44,15.05,50.82c-9.77,3-16.13,7.86-14.9,13.71C.86,67.85,6.62,72.17,15.45,75,13,84.88,13.93,92.78,19.56,94.73c3.2,1.1,9.85-1.6,16.79-7.69,7.39,6.82,14.63,9.84,18.86,6.7,3.28-2.43,4.23-9.79,2.13-19.06C67.34,71.6,73.87,66.66,73.2,61.3ZM52.75,33.45c3.57,1.73,3.89,8.07,2,15.85a65.05,65.05,0,0,0-10.51-1.63,80.06,80.06,0,0,0-5.74-6.93C44.51,35.27,50.3,32.26,52.75,33.45ZM47.37,67.82a67,67,0,0,1-4,6.32q-2.88.3-5.81.39a64.56,64.56,0,0,1-8-.25c-1.18-1.64-2.31-3.35-3.37-5.1a64.24,64.24,0,0,1-3.32-6.24c1-2.26,2.12-4.5,3.33-6.66a59.42,59.42,0,0,1,3.37-5.34c2.32-.27,4.66-.45,7-.53a61.1,61.1,0,0,1,6.21.14c1.39,1.91,2.72,3.89,3.94,5.9A60.83,60.83,0,0,1,50,62.74C49.17,64.45,48.3,66.15,47.37,67.82Zm4.28-1c.7,1.89,1.3,3.77,1.8,5.6q-2.7.66-5.63,1.13C48.56,72.39,49.28,71.2,50,70,50.55,68.92,51.11,67.86,51.65,66.81ZM36.29,82.48c-1.37-1.43-2.73-3-4.06-4.63,1.56.06,3.16.07,4.79,0,1.22,0,2.41-.11,3.6-.19C39.21,79.4,37.75,81,36.29,82.48ZM25.16,73.75c-2-.31-4-.71-5.89-1.17.53-1.79,1.15-3.64,1.86-5.5.59,1.1,1.21,2.2,1.88,3.3S24.43,72.65,25.16,73.75Zm-3.88-14.4C20.4,57.17,19.66,55,19,52.88c2.09-.54,4.3-1,6.58-1.39-.67,1.07-1.32,2.16-1.95,3.29C22.82,56.3,22,57.82,21.28,59.35Zm15-16.5c1.37,1.44,2.72,3,4,4.63-1.26,0-2.55,0-3.85,0-1.54,0-3.06.14-4.57.26C33.37,46,34.85,44.36,36.33,42.85ZM49.2,55q-1.26-2.07-2.6-4a63.63,63.63,0,0,1,7.34,1.42c-.66,2.21-1.46,4.48-2.4,6.77C50.82,57.79,50,56.4,49.2,55ZM18.94,34.14c3.25-2.39,9.12.72,15.14,6.45a66.09,66.09,0,0,0-6.25,7.58,79.91,79.91,0,0,0-9.57,1.76C16.43,42.24,16.55,35.91,18.94,34.14ZM3.47,63.6C3,59.72,8.24,56.23,15.8,53.82a64.77,64.77,0,0,0,3.56,9.7,76,76,0,0,0-3,8.27C9,69.61,3.82,66.48,3.47,63.6Zm17,27.8c-3.56-1.59-3.86-7.85-2.06-15.55a64.36,64.36,0,0,0,9.44,1.69A75.71,75.71,0,0,0,34,84.72C28.39,89.78,23.1,92.58,20.47,91.4Zm32.91-.56c-3.25,2.23-8.87-.57-14.69-6a62.79,62.79,0,0,0,6.61-7.65,76.08,76.08,0,0,0,8.92-1.66C55.86,83.15,55.56,89.34,53.38,90.84Zm3.16-19.27a64.06,64.06,0,0,0-3.11-8.5A77,77,0,0,0,57,53.28c7.34,2.31,12.5,5.57,12.73,8.19C70.14,65.53,64.54,69.16,56.54,71.57Z"/></g></g></svg>