<svg xmlns="http://www.w3.org/2000/svg" viewBox="0 0 49.76 88.54"><defs><style>.cls-1{fill:#3a3a3a;}</style></defs><g id="Layer_2" data-name="Layer 2"><g id="Layer_1-2" data-name="Layer 1"><polygon class="cls-1" points="46.35 83.27 48.63 54.46 28.62 54.46 28.62 54.46 49.39 44.83 49.76 44.23 49.76 35.69 49.76 34.95 0 34.95 0.09 35.69 0.64 42.8 0.75 43.55 24.41 43.48 24.41 43.48 2.97 53.71 2.97 63.11 37.58 63.26 37.04 75.13 25.9 79.16 13.73 76.95 12.9 68.38 3.87 68.38 5 83.35 25.69 88.54 46.35 83.27"/><polygon class="cls-1" points="16.99 14.54 3.65 14.54 3.65 0 17.34 0 17.34 4.76 7.56 4.76 7.56 10.93 16.99 10.93 16.99 14.54"/><polygon class="cls-1" points="22.48 4.33 22.48 6.26 32.53 6.26 32.53 14.16 18.74 14.16 18.74 10.9 28.19 10.9 28.19 9.02 18.74 9.02 18.74 0.3 32.53 0.3 32.53 4.33 22.48 4.33"/><polygon class="cls-1" points="37.75 4.33 37.75 6.26 47.81 6.26 47.81 14.16 34.02 14.16 34.02 10.9 43.47 10.9 43.47 9.02 34.02 9.02 34.02 0.3 47.81 0.3 47.81 4.33 37.75 4.33"/></g></g></svg>