<svg xmlns="http://www.w3.org/2000/svg" viewBox="0 0 60 86.93"><defs><style>.cls-1{fill:#3a3a3a;}</style></defs><g id="Layer_2" data-name="Layer 2"><g id="Layer_1-2" data-name="Layer 1"><polyline class="cls-1" points="8.06 45.24 9.48 63.03 17.29 63.03 17.61 63.03 41.22 63.03 40.4 74.57 30.33 78.36 19.11 75.05 19.21 67.46 10.26 67.46 10.8 82.28 12.43 82.58 29.24 86.93 30.19 86.91 48.8 82.34 48.79 82.28 48.81 82.28 50.17 63.03 50.82 54.14 17.29 54.14 17.29 44.03 18.29 44.03 52.16 44.03 52.69 44.03 52.69 36.39 52.69 35.57 7.17 35.87 8.06 45.24"/><polygon class="cls-1" points="0 14.37 3.92 14.37 4.45 14.38 4.48 9.56 5.18 9.57 8.16 9.57 8.86 9.57 8.86 14.53 9.36 14.53 12.94 14.53 13.87 14.53 13.87 0.4 13.87 0 9.29 0 8.82 0 8.86 3.98 8.86 5.07 4.74 5.07 4.73 4.53 4.73 0.8 4.73 0 0.75 0 0 0 0 13.88 0 14.37"/><polygon class="cls-1" points="15.64 0 15.64 5.05 19.55 5.05 19.55 14.53 24.74 14.53 24.74 5.05 28.73 5.05 28.73 0 15.64 0"/><polygon class="cls-1" points="41.42 7.82 41.42 14.53 46.23 14.53 46.23 0 41.42 0 40.96 0.24 38.36 4.08 35.76 0.24 35.34 0 30.52 0 30.52 14.53 35.34 14.53 35.34 7.87 38.36 12.05 41.42 7.82"/><polygon class="cls-1" points="53.66 9.49 53.66 0 48.7 0 48.7 9.49 48.7 14.53 53.66 14.53 60 14.53 60 9.49 53.66 9.49"/></g></g></svg>