<svg xmlns="http://www.w3.org/2000/svg" viewBox="0 0 77.55 58.08"><defs><style>.cls-1{fill:#3a3a3a;}</style></defs><g id="Layer_2" data-name="Layer 2"><g id="Layer_1-2" data-name="Layer 1"><path class="cls-1" d="M77.44,40.5c-.2-3.3-3.92-5.36-3.92-5.36-5.91-4-13.74-.35-13.74-.35C56.27,31.22,59,25,59,25c-.13-1.84-4.81-.29-4.81-.29l-.75,3c-.21,2-4.74,8.39-4.74,8.39a9.16,9.16,0,0,1,0-8.8c-1-1.72-4.88-.27-4.88-.27L43.22,29,38.61,39.67l-2.54,5.5h-.35c-.41-.89.21-3,.21-3l1.72-7c-.34-2.2-2.61-1-2.61-1,1.17-5.57-2.82-4.75-2.82-4.75C29.54,29.3,25.9,34,25.9,34l-7.84,4.19c0-.34-3-2.75-3-2.75-.55-.2-6-4.81-6-4.81C2.46,24.48,8.44,18,8.44,18,23.29,2.7,38.61,4.9,38.61,4.9c6.87.89,6,5.29,6,5.29-.14,7.35-10.93,12.16-10.93,12.16C22,27,18.41,21.25,18.41,21.25c-.67-.27-.44.6-.44.6.14,3.16,5.91,4.67,5.91,4.67,4.35.78,9.67-.73,9.67-.73,4.35-.73,9-4.21,9-4.21,3.12-2.3,5.14-6.69,5.14-6.69,2.75-7.11-.28-10.22-.28-10.22C44.36.09,36.16.13,36.16.13,26.86-1.1,14.4,6.73,14.4,6.73,9.2,8.81,3.15,16.15,3.15,16.15a15.65,15.65,0,0,0-3,6.36c-1,4.11,4.22,8.92,4.22,8.92,1.58,1.75,10.74,8.11,10.74,8.11.32.2.1.36.1.36l-4.72,2.71c-2.27.89-6.07,5-6.07,5-4.31,7.08.71,10.15.71,10.15C11.65,59.12,15,55.94,15,55.94c4.19-2.43,5.52-9,5.52-9a9.27,9.27,0,0,0-1-6.67l3.12-1.81c1.58-1.12,1.12-.48,1.12-.48-2,7.58.3,10.81.3,10.81,2.47,4,4.51,1.72,4.51,1.72,1.1-.3,3.51-6.51,3.51-6.51C31.49,51.2,35,49.82,35,49.82c1-.14,2.86-3.27,2.86-3.27,1.56-2.29,5.93-12.67,5.93-12.67.19-1.19.51-.64.51-.64-.35,2,2.24,6.64,2.24,6.64l-5.31,6.48c-1.08,1.77.36,2.39.36,2.39a7.85,7.85,0,0,0,3.9-.37,7.44,7.44,0,0,0,5.13-4.33c.53-.92.16-3.21.16-3.21A9.66,9.66,0,0,0,50,38.6c.62-.53,4.47-7.68,4.47-7.68-.07,2.25,2.08,6,2.08,6a11.21,11.21,0,0,0-4.46,6.62c-.39,3.64,2.56,2.68,2.56,2.68a11.88,11.88,0,0,0,3.49-1.51,9.67,9.67,0,0,0,2.56-2.59,4.64,4.64,0,0,0,.51-2.34,8.44,8.44,0,0,0-.58-3A16.62,16.62,0,0,1,72,37c7.15,4.81,2.34,8.32,2.34,8.32-2.27,1.51-.69,1.3-.69,1.3C78.54,45.31,77.44,40.5,77.44,40.5ZM17.33,46.13c-.55,3.17-4.49,6.37-4.49,6.37-4.63,2.38-5.09.37-5.09.37-2-6,9.3-11.41,9.3-11.41C17.88,42.38,17.33,46.13,17.33,46.13ZM32.68,34.91c0,1.6-3.62,9.62-3.62,9.62-1.24,3-1.83.78-1.83.78a10.48,10.48,0,0,1,.41-6.51c2.06-6.14,5-6.37,5-6.37C33.41,33.08,32.68,34.91,32.68,34.91Zm12.23,10.9c-1.37,1.1-1,.3-1,.3.55-.11,3.57-4.28,3.57-4.28C48.07,44.07,44.91,45.81,44.91,45.81Zm12.83-5A3.54,3.54,0,0,1,55,43.66a4.78,4.78,0,0,1,.77-2.7c.23-.92,2-2.52,2-2.52C58.15,39,57.74,40.86,57.74,40.86Z"/></g></g></svg>