<svg xmlns="http://www.w3.org/2000/svg" viewBox="0 0 86 62"><defs><style>.cls-1{fill:#282828;}</style></defs><g id="Layer_2" data-name="Layer 2"><g id="Layer_1-2" data-name="Layer 1"><path class="cls-1" d="M58,3.37A28.38,28.38,0,0,0,44,7L38.52,0,11.89,18.07l0-8.37L.19,9.65,0,52l11.74.05,0-8.37L38.24,62l5.58-6.91A28.29,28.29,0,0,0,57.73,58.8,27.94,27.94,0,0,0,86,31.21,27.92,27.92,0,0,0,58,3.37Zm-24.22,42L12.86,30.89l21-14.28a27.15,27.15,0,0,0-.13,28.74Zm24,2.66A16.93,16.93,0,1,1,75,31.16,17,17,0,0,1,57.78,48Z"/></g></g></svg>