<svg xmlns="http://www.w3.org/2000/svg" viewBox="0 0 223.2 51.7"><defs><style>.cls-1{fill:#202020;}</style></defs><g id="레이어_2" data-name="레이어 2"><g id="Layer_1" data-name="Layer 1"><path class="cls-1" d="M21.4,42.87c-.41.31.12.13.58.14Z" transform="translate(-0.07)"/><path class="cls-1" d="M22,43l.42.09A.79.79,0,0,0,22,43Z" transform="translate(-0.07)"/><path class="cls-1" d="M25.85,43.65c-.92.18-2-.31-2.55.06C24.17,44.06,25.58,44.09,25.85,43.65Z" transform="translate(-0.07)"/><polygon class="cls-1" points="24.47 43.23 24.34 43.45 25.16 43.17 24.47 43.23"/><polygon class="cls-1" points="23.93 42.96 24.04 43.06 25.29 42.95 23.93 42.96"/><path class="cls-1" d="M28.87,44.12l-.91,0c-.81-.41.6-.37.06-.64-1.12-.12-.45.62-1.84.37.08.31,2.24.23,2,.67C29.31,44.77,28.23,44.23,28.87,44.12Z" transform="translate(-0.07)"/><path class="cls-1" d="M83.2,45.37a.31.31,0,0,0,.12.05C83.28,45.37,83.23,45.33,83.2,45.37Z" transform="translate(-0.07)"/><path class="cls-1" d="M98.05,45.57a4.62,4.62,0,0,0,.61.11.89.89,0,0,0-.24-.13Z" transform="translate(-0.07)"/><path class="cls-1" d="M73.86,45.82a5.55,5.55,0,0,0-.58-.15A1.21,1.21,0,0,0,73.86,45.82Z" transform="translate(-0.07)"/><path class="cls-1" d="M168.56,49.05a.31.31,0,0,0-.07.14h0l.17-.13Z" transform="translate(-0.07)"/><path class="cls-1" d="M114.7,45.23a4.83,4.83,0,0,0,.67,0A2,2,0,0,0,114.7,45.23Z" transform="translate(-0.07)"/><path class="cls-1" d="M68.51,45.57l.22,0-.27-.07,0,0Z" transform="translate(-0.07)"/><path class="cls-1" d="M93.23,44.78a4.29,4.29,0,0,0,.53.08A2.52,2.52,0,0,0,93.23,44.78Z" transform="translate(-0.07)"/><path class="cls-1" d="M42.57,45.92a1.48,1.48,0,0,0,.66,0A.81.81,0,0,0,42.57,45.92Z" transform="translate(-0.07)"/><path class="cls-1" d="M47.89,46.3h0C47.89,46.36,47.9,46.35,47.89,46.3Z" transform="translate(-0.07)"/><path class="cls-1" d="M51.28,46.6h-.06S51.28,46.66,51.28,46.6Z" transform="translate(-0.07)"/><path class="cls-1" d="M43.23,45.93c.43.23.51.84,1.13.23l-.11-.1c.33.18.86,0,1.25,0a.7.7,0,0,0-.13-.17c-.2,0-.46-.06-.86-.14S43.71,45.83,43.23,45.93Z" transform="translate(-0.07)"/><path class="cls-1" d="M83.14,45.49c0-.12-.41-.07,0,0Z" transform="translate(-0.07)"/><path class="cls-1" d="M78.54,45.77l.45,0A1.3,1.3,0,0,0,78.54,45.77Z" transform="translate(-0.07)"/><path class="cls-1" d="M61.31,44.65l.08,0C61.42,44.62,61.36,44.63,61.31,44.65Z" transform="translate(-0.07)"/><path class="cls-1" d="M79.4,45.84l-.41,0A1.11,1.11,0,0,0,79.4,45.84Z" transform="translate(-0.07)"/><path class="cls-1" d="M66.47,45.32l.07,0Z" transform="translate(-0.07)"/><path class="cls-1" d="M207.22,29c.25.24.24.51.39.8.79.32-.9-1.21,0-.6a3.19,3.19,0,0,0-.59-.58l0,.62C207.53,29.69,206.87,28.85,207.22,29Z" transform="translate(-0.07)"/><path class="cls-1" d="M172.89,49.86l-.15,0c.1.18,0,.24.58.34.49-.29-.27-.71.57-1a2.31,2.31,0,0,1-.64,0C173.6,49.37,173.26,49.64,172.89,49.86Z" transform="translate(-0.07)"/><path class="cls-1" d="M173.25,49.12s0,0,0,0a.69.69,0,0,0-.13-.11,1.22,1.22,0,0,1-.34,0A1.21,1.21,0,0,0,173.25,49.12Z" transform="translate(-0.07)"/><path class="cls-1" d="M214.07,38.23l.21.33A.45.45,0,0,0,214.07,38.23Z" transform="translate(-0.07)"/><path class="cls-1" d="M113.53,50.44a4,4,0,0,0-.47.12A1,1,0,0,0,113.53,50.44Z" transform="translate(-0.07)"/><path class="cls-1" d="M164.67,49.53a2.52,2.52,0,0,0-.41-.06l-.26,0Z" transform="translate(-0.07)"/><path class="cls-1" d="M192,45.26c-.29.47.22,0,.81.22l.54-.25A6.57,6.57,0,0,0,192,45.26Z" transform="translate(-0.07)"/><path class="cls-1" d="M207.07,28.61l0,0,0,0Z" transform="translate(-0.07)"/><path class="cls-1" d="M208.06,44.9l.26.06Z" transform="translate(-0.07)"/><path class="cls-1" d="M170,49H168l.6.11C168.85,48.82,169.74,49.23,170,49Z" transform="translate(-0.07)"/><path class="cls-1" d="M183.16,45.11l-.19-.28c-2.05.64-4.42-.21-6,.66-2.52-1-1.64.91-4,0l.08.14c-7.56-.09-15.57-.55-22.63-.06v-.2c-11.38-.31-22.46,0-33.72-.3-1.06.16-.43.61-1.34.82-.39,0-1.28,0-1.28-.26.76-.13.33-.35.6-.44a19.54,19.54,0,0,0-4,0l.94.33a5.6,5.6,0,0,1-1.53,0c.17-.16-.4-.52,0-.59-2.4.74-1.86-.36-3.87-.11-.41.66-2.94,1.14-4.61,1.58l-.87-.2c1.16,0,0-.49,1.43-.42-1.2-.23-2.31,0-3.44-.11.21.18.15.4-.31.46-.69-.11-.74-.45-1.53-.51l.79-.19c-.52-.26-1,.06-1.48.08-.15-.28-1.33-.36-1.11-.67a15.53,15.53,0,0,1-2.61.31c1.18.34-.32.36-.2.6l1.36-.06c-1.9-.26.62,0,.49-.51.89.25-1.25.74.25.72a37.06,37.06,0,0,0-4,.28c1.11,0-.22.3.37.47-1.4,0-.34-.18-.76-.51-.77,0-1-.29-1.75,0-1.23-.19.2-.35-.42-.57.47-.31,3.42.54,3.13-.53.64,0,1.44-.36,2.37-.3a7.63,7.63,0,0,0-3-.36l-.08.6c-.76,0-.93.38-1.48.3.3-.16-.22-.43-.83-.4.17.09.42.08.34.18-1.13,0-1.3.4-2.66.46a18.52,18.52,0,0,1,2.36.68c-.29.41-.73,0-1.35.06.1,0,.22-.06.05-.15l-.66.18c-1.39-.23.19-.6-.94-.84-.78-.38-1.1.15-1.7-.07a.6.6,0,0,0,.12.11,1.55,1.55,0,0,1-.3,0s0,0,0,0c-.74,0-1.53,0-1.76.26-.07-.14-.64,0-.89.09-.41.11-1.42.43-2-.1h.05c-.92-.11-1.62-.3-1.42-.46l-1.47-.19.18-.4c-1.36.05-1.24.29-2.18.66a9.29,9.29,0,0,0-3.31-.06,2.44,2.44,0,0,0-.53,0l.55.19c-1-.08-.93.14-1.63.1.14,0,.16.07-.22,0l-.4,0s.19,0,.35,0l-.12-.14c-.82-.48-1.31.17-2.2,0a1.77,1.77,0,0,1,.33,0c-.5-.14-1.2-.75-1.43-.42a.67.67,0,0,0-.47.09l-.37-.09.36.09c-.24.1-.46.23-.49.14L62.78,45a2.21,2.21,0,0,0-.85,0l-.21-.18c-.47,0-.47-.1-.41-.15-1.59-.68-2.55.16-4.28-.48-.35.26.37.44.41.59a9,9,0,0,1-1.83.43c-.76-.44-3.14-1-2.72-1.49-1.45-.15.43.38-.31.52l-.17,0a2.43,2.43,0,0,1,1.15.56c.09.31-1.21.3-1.59.19l.3-.41c-1.35,0-1.12.71-2,1.08-1.05-.25-.41-.59-.6-1l-1.14,0,0-.32c-.74,0-.93.32-1.93.12.75-.25-1.49-.41-.45-.74-.55-.15-.76.45-1,0-.41.31.49.21.77.34.19.52-1.25.13-1.94.2,0-.26.48-.26-.3-.5a1,1,0,0,1-1.12,0c0,.32-.91,0-1.35-.07.5.11,1.21.41.85.66a4.1,4.1,0,0,1-1.64,0l.6.21c-.82.4-1.26-.46-2.34-.4a7.52,7.52,0,0,0,1.16-.33c-.51.11-1.49.26-2.29.34l-.85-.55c-.14.23-1-.11-1,.22-1.1-.32.93-.31,1.06-.54-1.38-.33-1.17.44-2.47-.17l.48-.26c-.45-.06-1.36,0-1.4-.13,0,.11.22.09.5.12-.34.61-2.11.24-2,.92l.61.1c-1,0-1.68.41-2.38.11-.54-.27.44-.41.78-.55-.88-.13-.79.65-1.85.48.55.16.42.39.06.53.62.1,1.89.36,1.69.06l-.21-.09c.07-.16.41-.19.59-.26.84.08.36.34.52.48,1.39.25.18-.65,1.46-.5l.15.15c.64-.11,1.59-.06,1.8-.44.52.47,1.47,0,2.06.26,0,.95-2.18-.25-2.95.2.65.25-.43.41-.73.6l2.16-.22c.16.14.74.67,1.16.36l-.17,0c.86,0,.67-.44,1.38-.24.11.09-.13.22-.19.28.67.15.58-.16,1-.21.66.14-.37.36.18.51.81-.3,1.23.19,1.91.23-.24-.56,2.75-.49,1.33-1.09l1.65-.23c.48.33-1.18.66-.77,1.15l-1.29-.14c.16.69,2.75-.2,3.54.62a5.35,5.35,0,0,1,1.81.41L47,45.67c.67.18.87.52.89.63a8.21,8.21,0,0,1,1.13.09.84.84,0,0,1-.5.16c.49.37.65.26.84.1a2.59,2.59,0,0,1,1.13,0l-.4.2c.26,0,.59-.08.63-.18a2.07,2.07,0,0,0,.5,0,2,2,0,0,0-1-.67,20.78,20.78,0,0,1,4.12.9c-.06.16-.64.34-.47.37.66.14,1.42-.11,1.37-.37h.38a.85.85,0,0,0,.58.38.87.87,0,0,0,.42.15c.26-.46,1.54-.12,1.83-.32a6.39,6.39,0,0,0-1.05-.11c.56-.27,1.07-.6,1.47-.32-1,.24,1.05.55-.48.59,1,.67.58-.39,1.7-.11l.72.28c-.14.34-1.2.1-1,.24h.51c-.52.22-2.43-.06-3.63.23l2.35.36c3-.23,6.71.46,9.28-.14h-.11c.05,0,.07-.09.12-.22l.11.09L69,47.7a15.09,15.09,0,0,0,2.51.78c-.56-.24-.56-.24-.6-.5.13-.34.22-.48,1.06-.32,0,.25-.52.22.09.44-.31-.13,0-.29.35-.3.47.18,1.26.25,1.26.49a.84.84,0,0,1-.54-.08c-.23.06.88.27.21.44l.87,0c.49.23-.35.3-.16.44,1.44-.09,2.2-.62,3.51-.72a1.85,1.85,0,0,0-.09.51c1,.21,2.17-.49,3.3-.48-.17.16-.59.07-.94.13,3.46.39,6.3.48,9.54,1.13l.86-.53.84.41a51.08,51.08,0,0,0,9.32.12c1,0,.6.41,1.07.58,2.23.12,2.79-.49,4.91-.56-.29.16-.8.63.11.68a.75.75,0,0,1,.87-.29l-.3.16c.52.27,1,0,2.12.16a15,15,0,0,0,5.38-.92c1.7.09-.19.6.13.72-1.2-.22-.83.09-1.1.28.64-.15,1.41-.23,1.73.17a6.4,6.4,0,0,0,2.17-.23c-.44.13-.82-.1-.4-.27.72.15,2.57,0,2.46.53,4.2,0,8.9.11,13.4.13.76-.26-.57-.11-.16-.29,1.11-.33.88.18,1.76-.08l-.37.27a19.4,19.4,0,0,0,4-.7c-.22.31,1,.26,0,.44.63,0,1.38,1.34,1.86,1.06l-.7-1.3c0-.12.91,0,.82-.13a4.91,4.91,0,0,0,1.59.56c.18.33-.77.26-1.28.25-.08.54,1.74.35,1,.85,1.11-.08-.16-.28.5-.48l1,.12-.74-.18c.8-.16,1.08-.58,2.16-.27l1.12-.54c.11.43.81.08,1.39.18l-.36.28A3.71,3.71,0,0,1,148,51c-.43.38-.7-.09-.88.27l.84.13c0-.25.53-.44-.07-.59A4.59,4.59,0,0,1,151,50c.88.42-.95.37-.58.78,2,.18,2.47-1.09,3.66-1,1.51.17,1.42-.21,2.95-.25-.48.29,1.08.3,1.36.57l-.6.3c.46-.09.91,0,.77.22-.09-.38,2-.37,3-.56l-.18-.33a14,14,0,0,1,2.84-.25c1.3-.12,1-.4,2-.77a.64.64,0,0,1,.32,1,9.19,9.19,0,0,0-1.51-.16c-1.65.3-2.92,1-4.57.85-.7.8,1.11-.1,1.91.18a.19.19,0,0,1-.14.07.68.68,0,0,1,.2,0c-.59.1-1.55.23-1.71.64,1-.09.71-.8,1.94-.47.91-.22,1.65.4,2.2.45.6-.3.62-.94,2.11-.83l-.65.45c1.68,0,.79-.66,2.34-.65-.54,0,.53-.44-.51-.44a5.44,5.44,0,0,1,2.49-.18c.22-.07,0-.15.08-.31-.94-.3-1.47.32-2.25-.12l-.64.49c-.88-.17-1-.56-.44-.75a1.39,1.39,0,0,1-.64,0c-.15-.73,1.05.25,1.35-.37l-.62.06c-.27-.47,1.43-.42,2.23-.4.9.21,1.72.28,1.78.62l-1.2.16c.63.26,1.54-.18,2.24-.17a.35.35,0,0,0,.19.1.14.14,0,0,1,0-.09.76.76,0,0,1,.39.13,18.83,18.83,0,0,1,2.09-.1l-.07-.3-.08.17c-.56,0-1.33-.18-.9-.42A1.67,1.67,0,0,1,176,49c-.29.47-1.24,0-1.88.18.39.45,1.29,0,2.6.32-.51.51-1.52,0-1.8.48,1.06.08,1.33-.29,2.44-.17-.14.24-1.22.27-1.15.57l.72.14c-1.75,0,.31.62-1.05.76.65.2.89-.42,1.82-.11-.26-.22-1-.61-.12-.82l1,.14c.42.24-1,.55-.38.75l1-.19c0-.15-.54-.22-.23-.43.6.16,1-.59,1.68-.82a2.19,2.19,0,0,1,1.22.2c1.41-.46,3.21-.47,4.51-.91-.89.31,0,.51.58.73-1,.08-1,.55-1,.85.62-.06,1-.55.71-.7,1,.18.71-.34,1.63,0,.6.16-.29.48-.08.65,1.13,0,.3-.58,1.53-.48-.07.06-.18.08-.08.17a1.82,1.82,0,0,0,1.51-.38c.71.61,2-.09,1.85.51,1.6-.19-.24-.33.07-.54a4.58,4.58,0,0,1,2.25,0,4.07,4.07,0,0,1-1.14.1l.34.41c2,.27,1.25-1,3.18-.63-1,.23-.33.32-.81.62.29-.11,1.8,0,.88-.32a16.35,16.35,0,0,1,1.73.16,5.62,5.62,0,0,0,1.7-.57,6.8,6.8,0,0,1,2.25.48c2.12-.33,4.09.15,6.33-.21l-.17,0c1.74,0-.78-.54,1-.56-.12.26.15.34.53.39.12,0,.56,0,.87.06a6,6,0,0,1,.92.13,39.91,39.91,0,0,0,4.93-.13c.72-.06,1.41-.11,2.17-.13h1.2l.66,0,.36,0h.18c.06,0,.16,0,.1,0l.2.12s0,0,0,.08-.2.08-.53.1h.95s0-.05,0-.08l-.55-.71-1.13-1.41c-.75-.93-1.49-1.83-2.27-2.78l.15.08A33.94,33.94,0,0,0,216,40.74l-.44-.48-.28-.3-.58-.59c-.38-.39-.78-.8-1.16-1.23.17.1.35,0,.49.09-.64-1-1.72-2.5-2.59-2.86-.46-1.4-.68-.63-1.38-2.34,0-.14.17.09.26.17a18.57,18.57,0,0,0-1.31-2c-1.43-1.36-2.26-1.35-3.46-3.29.49-.51,1,1,1.45.73a2.49,2.49,0,0,1-1-1.13c.44.14.19,0,.54,0-.14-.49-1.73-1.11-1.67-1.15-.12.06-.08.24.2.59-.66-.17-1.35-1.78-2.14-2.57.2.3.76,1.29.24,1.14-.75-1.28-1.58-1.29-2.41-2-.54-1.29,1.06.48,1.3,0,0-.29,0-1,.49-.61a14.58,14.58,0,0,0-2.2-2.35l.13-.06c-.93-1.2-2.35-2.19-2.86-3.4l.26.65c-.22-.16-.62-.81-1.09-1,.21-.09-.19-1,.2-.8-1-.14-2.33-2.6-3.33-2.85-.08-.44.35-.33.56-.32.49.83.55,1.18,1.08,1.43-.46-.65-.64-1.24-.43-1.24-.83-.4-2-1.88-2.65-2-.14-.62-.35-1.15.08-1.19-1.56-1.91-.29,1.66-1.83-.66-.4-1.26,1.09.76.23-.77l.23.24c.12-1.59-1.07-.35-1.83-1.57.34-.45.87.62.64-.41-.83-1-1.8-1.07-2.37-2.26l.31.05c-.5-.68-1.29-2.11-1.76-2.79.06-.09.12,0,.22.14-.65-1.41-.57-.4-.94-1.66L184.87,0a5,5,0,0,0,1.31,2.32c-.69-.51.11,1.43-.49,1.34l.24,0c.48,2.19,1.88,4.52,3.12,6.91,1.39,1.09,1.4,2.51,2.74,3.79.67-.12.29.21,1.27,1.42-.53-.64-.45.18-.22.66a3.55,3.55,0,0,1,.82.7c0,.38.7,2.28,1.46,2.62.38.89-.29-.07-.51-.16,0,.5.65.48.65.86a.16.16,0,0,1-.15,0c.86,1.16,1.22,2,2,3.24.57-.26,1,1.07,1.62,1.49-.29-.07.31.82.47,1.23l.84.38c.78.42.43,1.06,1.21,1.77l-.06-.26a8.17,8.17,0,0,1,1.67,3.1,33.45,33.45,0,0,1,5.53,7c.73,1.17,1.46,2.36,2.31,3.6l1.13,1.61a5.25,5.25,0,0,0,.65.75c.37.17.3-.11.76,0a4.25,4.25,0,0,1,.57.61c.07-.17-.22-.2.07-.12l-.58-.44s.11,0,.19,0a2.61,2.61,0,0,1-.6-.52c.38.23,1,.35,1.18.77a1,1,0,0,1-.32-.21c.21.33.54.39.56.6s.25.24,0,.19a3.43,3.43,0,0,1,.12.33l0,.14,0,.07s0,.06-.06,0c.31.27,0,.28-.39.22a8,8,0,0,1-.84-.22c-.44-.4.43-.13-.1-.52-.26-.09-.48-.19-.69-.28l.5.31-.43-.08-.06-.06c.13.12.23.25,0,.14s-.19-.13-.18-.15a.57.57,0,0,1,0,.18c-.18-.33-.27-.1-.52-.48a.3.3,0,0,0-.25,0l-.09.06a.72.72,0,0,1-.21,0l-.28,0a6.42,6.42,0,0,1-2.55-.09c.36.18-.68.62-1.34.56-.39-.08-.49-.17-.25-.32l-.87.21c-1.11-.58-2.17-.18-3.78-.36l.08-.17a5.1,5.1,0,0,1-2.13.33l.16-.34c-1.1-.22-.82.73-2,.53,0,.37.77.54.9.89-.3-.37-1.59-.41-1.29-.15-1.2.17-.83,0-.94-.08l-.7.23c-.85,0-.28-.47,0-.68a4.83,4.83,0,0,1-2.54.09l.36-.17-1.18-.05a6.09,6.09,0,0,1-2.83.2l.67-.49c-.7-.24-.35.17-.53.25a2.23,2.23,0,0,1-1.93-.33C186.43,45.63,184.66,44.37,183.16,45.11Zm-121.44-.2.16.08C61.5,45.05,61.29,45.11,61.72,44.91Zm9.65.71c-1.18.13-.79-.08-.88-.22,1.14.19,1.79.07,2.79.27a.72.72,0,0,1-.23-.31,1.17,1.17,0,0,1,.93.41C73.45,46.23,70.88,45.31,71.37,45.62Zm-21.92,1a.67.67,0,0,1,.14-.09h0Zm5.8,0a.71.71,0,0,0,.38.23C55.53,46.66,55.44,46.55,55.25,46.57Zm11.44,1.32a2.25,2.25,0,0,0,1.31.17A11,11,0,0,0,66.69,47.89Zm72.54,1.79c-.34.08-1,.28-.4.43.29-.17.84.13,1.08-.14l.06,0A3.92,3.92,0,0,0,139.23,49.68Zm34.09-1.77c-.06.2-.32.41-.15.56h-.1c.09.06.16.12.09.16a2,2,0,0,0,.77,0C174,48,174.6,47.89,173.32,47.91Z" transform="translate(-0.07)"/><path class="cls-1" d="M162,50.65h0Z" transform="translate(-0.07)"/><path class="cls-1" d="M173.87,48.64s-.3-.1-.7-.17C173.25,48.55,173.45,48.61,173.87,48.64Z" transform="translate(-0.07)"/><path class="cls-1" d="M30.92,42.78l.34,0-.65-.26c-1.14.1-1.23.37-1.54.66a12.81,12.81,0,0,1,2.94.06Z" transform="translate(-0.07)"/><path class="cls-1" d="M31.28,45a1.6,1.6,0,0,0,.53.38l.19-.18Z" transform="translate(-0.07)"/><path class="cls-1" d="M44.52,47.11l-1.06-.27C43.11,47,44.33,47.39,44.52,47.11Z" transform="translate(-0.07)"/><path class="cls-1" d="M40.07,43.31l-.58.17c.49.21,1.17.25,1.3,0C40.1,43.57,40.63,43.36,40.07,43.31Z" transform="translate(-0.07)"/><path class="cls-1" d="M47.39,47.37c.36-.36,1.06.25,1.3-.09C48.41,47.36,47.47,47,47.39,47.37Z" transform="translate(-0.07)"/><path class="cls-1" d="M46.93,43.66c-.31-.39-.9-.11-1.56-.26C45.93,43.46,46.68,43.9,46.93,43.66Z" transform="translate(-0.07)"/><path class="cls-1" d="M53.2,46.7c-.07.27-.52.22-1,.12a1.77,1.77,0,0,1,.52-.22c-.86.15-.91.1-1.59.18.66.25,1.66.45,1.53.78C53.16,47.34,53.81,47,53.2,46.7Z" transform="translate(-0.07)"/><path class="cls-1" d="M48.55,43.73A5.79,5.79,0,0,0,47,43.27c.1.2.3.5,1.09.51l-.3.3C48.51,44.37,47.54,43.64,48.55,43.73Z" transform="translate(-0.07)"/><path class="cls-1" d="M56.25,47.67l-.33-.17c-.81.2-1.81,0-2.28.37A9.13,9.13,0,0,0,56.25,47.67Z" transform="translate(-0.07)"/><path class="cls-1" d="M51.26,44.53l.14-.44c-.78-.12.05.15-.24.24a1.24,1.24,0,0,0-.72-.08C51.33,44.25,50.47,44.62,51.26,44.53Z" transform="translate(-0.07)"/><path class="cls-1" d="M53.88,44.22l1-.12-.75-.55C53,43.64,54.07,43.83,53.88,44.22Z" transform="translate(-0.07)"/><path class="cls-1" d="M55.09,44.61l.11.1,1.55-.56A7.64,7.64,0,0,0,55.09,44.61Z" transform="translate(-0.07)"/><path class="cls-1" d="M73.25,48.65c.18-.19-.69-.47-.32-.24C72.75,48.57,73.92,48.87,73.25,48.65Z" transform="translate(-0.07)"/><path class="cls-1" d="M69.83,44.86a7.61,7.61,0,0,0,2.47-.13C71.56,44.79,69.74,44.6,69.83,44.86Z" transform="translate(-0.07)"/><path class="cls-1" d="M72.55,44.69l-.25,0A1.18,1.18,0,0,0,72.55,44.69Z" transform="translate(-0.07)"/><path class="cls-1" d="M98.54,44.74a.38.38,0,0,0,.19,0Z" transform="translate(-0.07)"/><path class="cls-1" d="M97.92,44.84a2.13,2.13,0,0,0-1.4.22,13.75,13.75,0,0,0,2-.32C98.25,44.76,97.9,44.6,97.92,44.84Z" transform="translate(-0.07)"/><path class="cls-1" d="M103.88,45.1c-.31.12-.73,0-.63.23S104.08,45.24,103.88,45.1Z" transform="translate(-0.07)"/><path class="cls-1" d="M144.07,51.25c.58.1.92,0,.76-.26C144.19,51,144.54,51.16,144.07,51.25Z" transform="translate(-0.07)"/><polygon class="cls-1" points="145.51 50.93 145.58 51.07 145.96 51.28 145.51 50.93"/><path class="cls-1" d="M149.54,51.33a.53.53,0,0,1-.24.12C149.53,51.41,149.72,51.37,149.54,51.33Z" transform="translate(-0.07)"/><path class="cls-1" d="M149.19,51.47l.11,0Z" transform="translate(-0.07)"/><path class="cls-1" d="M148.93,51.38l-.05.15.31-.06C149.08,51.48,149,51.46,148.93,51.38Z" transform="translate(-0.07)"/><path class="cls-1" d="M150.73,51.38,150,51c-.78.21.9.22.13.68Z" transform="translate(-0.07)"/><path class="cls-1" d="M153.37,51.25c.72.14,1.76-.54,2.17,0,2.05-.27-.47-.84,1.87-1-2.22-.24-1.12,1-3.09.71C155.27,51.19,153.69,51.13,153.37,51.25Z" transform="translate(-0.07)"/><path class="cls-1" d="M153,50.4c-.12.26.8.28,1.08.11C153.84,50.48,153.38,50.12,153,50.4Z" transform="translate(-0.07)"/><polygon class="cls-1" points="157.3 51.01 157.93 51.2 158.09 51.04 157.3 51.01"/><path class="cls-1" d="M159.74,51.1l-.61.3C159.33,51.28,160.25,51.3,159.74,51.1Z" transform="translate(-0.07)"/><path class="cls-1" d="M163.05,51.44c.57.1,1.09-.59-.12-.43l.27,0C163.13,51.14,163.79,51.38,163.05,51.44Z" transform="translate(-0.07)"/><path class="cls-1" d="M170.68,50.31c-.39,0-.85.08-.77.22l1.08-.15Z" transform="translate(-0.07)"/><path class="cls-1" d="M170.51,48.66c-.37-.41-1,.05-1.73-.08A8.36,8.36,0,0,0,170.51,48.66Z" transform="translate(-0.07)"/><path class="cls-1" d="M171.93,50.89a1.78,1.78,0,0,1-1,0C171.05,51.17,171.79,51.1,171.93,50.89Z" transform="translate(-0.07)"/><path class="cls-1" d="M173.65,50.73c.35.16-.08.23.19.34a3.12,3.12,0,0,0,2-.09c-.2-.17-.47-.65-.16-.86-1.21.16-1.82.93-2.42.35l-1,.73C173.21,51.31,173,50.69,173.65,50.73Z" transform="translate(-0.07)"/><path class="cls-1" d="M171.19,49.38l.65.24c-.13-.24.36-.28.7-.36C172.37,48.73,171.56,49.35,171.19,49.38Z" transform="translate(-0.07)"/><polygon class="cls-1" points="180.29 50.34 181.66 50.2 181.21 50.17 180.29 50.34"/><polygon class="cls-1" points="181.17 50.49 181.21 50.65 182.26 50.35 181.17 50.49"/><polygon class="cls-1" points="182.61 50.65 182.45 50.63 181.64 50.78 182.61 50.65"/><path class="cls-1" d="M185.55,50.72l-.26-.22c-.35.06-1-.18-1,.12A1.85,1.85,0,0,1,185.55,50.72Z" transform="translate(-0.07)"/><path class="cls-1" d="M195,44.93c-.24.16-.09.28.06.41l.39-.38C195.28,45,195.05,45,195,44.93Z" transform="translate(-0.07)"/><path class="cls-1" d="M196.62,45.52l1-.44c-1.17,0-1.33.29-2.35.37.43.13,1-.19,1.59-.08Z" transform="translate(-0.07)"/><path class="cls-1" d="M213.45,45.58c.43.27.49.23.42.41a1,1,0,0,1,.49-.14h.08s0,0,0-.06l-.13-.14-.27-.31c-.28-.06-1-.48-.78-.31l.62.48-.43-.22c-.06,0,0,0,0,.08s.06.06.12.1S213.77,45.65,213.45,45.58Z" transform="translate(-0.07)"/><path class="cls-1" d="M188,5c.18,0,.2-.17.22-.37C187.67,4.07,188.13,5.14,188,5Z" transform="translate(-0.07)"/><path class="cls-1" d="M192.68,38.73c.27-.36-.1-.11-.45-.06Z" transform="translate(-0.07)"/><path class="cls-1" d="M192.23,38.67l-.32,0A.49.49,0,0,0,192.23,38.67Z" transform="translate(-0.07)"/><path class="cls-1" d="M189.27,38.52c.67-.3,1.49.06,1.9-.38C190.47,37.9,189.42,38,189.27,38.52Z" transform="translate(-0.07)"/><polygon class="cls-1" points="190.23 38.77 190.31 38.53 189.72 38.91 190.23 38.77"/><polygon class="cls-1" points="190.66 38.97 190.58 38.88 189.65 39.15 190.66 38.97"/><path class="cls-1" d="M187,38.43l.68-.09c.65.3-.41.44,0,.64.85,0,.27-.67,1.34-.6-.1-.3-1.71.06-1.55-.42C186.56,37.84,187.42,38.24,187,38.43Z" transform="translate(-0.07)"/><path class="cls-1" d="M146,42l-.1,0C145.94,42,146,42,146,42Z" transform="translate(-0.07)"/><path class="cls-1" d="M134.75,42.46a2.49,2.49,0,0,0-.46-.09.52.52,0,0,0,.19.12Z" transform="translate(-0.07)"/><path class="cls-1" d="M153,41c.16.05.31.08.45.11A.7.7,0,0,0,153,41Z" transform="translate(-0.07)"/><path class="cls-1" d="M81.43,39.51a.3.3,0,0,0,.06-.14h0l-.12.12Z" transform="translate(-0.07)"/><path class="cls-1" d="M122.16,43.3a2.76,2.76,0,0,0-.51.05A1.5,1.5,0,0,0,122.16,43.3Z" transform="translate(-0.07)"/><path class="cls-1" d="M157.07,40.86h-.17l.22,0,0,0Z" transform="translate(-0.07)"/><path class="cls-1" d="M138.43,43.05a2.17,2.17,0,0,0-.41,0A1.48,1.48,0,0,0,138.43,43.05Z" transform="translate(-0.07)"/><path class="cls-1" d="M176.53,38.22a.79.79,0,0,0-.49.06A.48.48,0,0,0,176.53,38.22Z" transform="translate(-0.07)"/><path class="cls-1" d="M172.52,38.38h0C172.52,38.32,172.51,38.33,172.52,38.38Z" transform="translate(-0.07)"/><path class="cls-1" d="M170,38.41H170S170,38.35,170,38.41Z" transform="translate(-0.07)"/><path class="cls-1" d="M176,38.28c-.34-.18-.45-.78-.86-.11l.08.09c-.26-.14-.63.12-.93.15a.5.5,0,0,0,.11.16c.15,0,.35,0,.66,0S175.69,38.43,176,38.28Z" transform="translate(-0.07)"/><path class="cls-1" d="M146,41.86c0,.12.31,0,0,0Z" transform="translate(-0.07)"/><path class="cls-1" d="M149.49,41.3h-.34A.78.78,0,0,0,149.49,41.3Z" transform="translate(-0.07)"/><path class="cls-1" d="M162.56,41.21l-.06,0C162.48,41.26,162.53,41.25,162.56,41.21Z" transform="translate(-0.07)"/><path class="cls-1" d="M148.84,41.29h.31A.54.54,0,0,0,148.84,41.29Z" transform="translate(-0.07)"/><path class="cls-1" d="M158.63,41l-.06,0Z" transform="translate(-0.07)"/><path class="cls-1" d="M27.86,36.16c.27,0,.41.13.66.19.57-.42-1.15-.05-.33-.41a2.23,2.23,0,0,0-.62.1l.34.42C28.4,36.32,27.59,36.31,27.86,36.16Z" transform="translate(-0.07)"/><path class="cls-1" d="M78.18,38.61l.11,0c-.07-.18,0-.24-.43-.35-.37.28.2.72-.45,1a1,1,0,0,1,.48,0C77.63,39.09,77.9,38.82,78.18,38.61Z" transform="translate(-0.07)"/><path class="cls-1" d="M77.89,39.35s0,0,0,0l.09.1a.67.67,0,0,1,.26.05A.75.75,0,0,0,77.89,39.35Z" transform="translate(-0.07)"/><path class="cls-1" d="M36.56,36.63l.29,0C36.71,36.6,36.62,36.59,36.56,36.63Z" transform="translate(-0.07)"/><path class="cls-1" d="M122.94,38.06l.35-.13A.55.55,0,0,0,122.94,38.06Z" transform="translate(-0.07)"/><path class="cls-1" d="M84.38,39.09a1,1,0,0,0,.31.07l.19,0Z" transform="translate(-0.07)"/><path class="cls-1" d="M63.64,42.73c.23-.46-.17,0-.61-.24l-.41.24A3.86,3.86,0,0,0,63.64,42.73Z" transform="translate(-0.07)"/><path class="cls-1" d="M27.54,36v0h0Z" transform="translate(-0.07)"/><path class="cls-1" d="M51.48,42.57l-.2-.07A.5.5,0,0,0,51.48,42.57Z" transform="translate(-0.07)"/><path class="cls-1" d="M80.32,39.58l1.57.05-.46-.12C81.21,39.73,80.54,39.3,80.32,39.58Z" transform="translate(-0.07)"/><path class="cls-1" d="M70.31,43.13l.14.28c1.56-.57,3.34.32,4.59-.51,1.88,1,1.25-.88,3,0L78,42.79c5.72.26,11.78.82,17.13.38v.2c8.62.39,17,0,25.55.1.8-.19.32-.63,1-.86.3,0,1,0,1,.24-.58.13-.25.35-.45.45a11.52,11.52,0,0,0,3.06-.07l-.72-.31a3,3,0,0,1,1.16,0c-.13.16.31.5,0,.58,1.8-.8,1.41.33,2.93,0,.3-.67,2.2-1.23,3.45-1.72l.66.17c-.87,0,0,.49-1.06.46a25,25,0,0,0,2.6,0c-.17-.17-.13-.39.22-.47.52.09.57.42,1.18.45l-.6.22c.41.24.75-.09,1.12-.14.12.28,1,.32.87.64.8-.4,1.09-.19,2-.44-.91-.28.23-.37.12-.6l-1,.12c1.45.17-.46.06-.35.53-.68-.21.92-.8-.21-.71a21.66,21.66,0,0,0,3-.46c-.84.1.15-.32-.3-.46,1.06,0,.27.17.6.47.58,0,.79.25,1.32-.11.94.13-.14.36.34.55-.34.33-2.61-.37-2.34.68-.49,0-1.08.42-1.79.41a4.46,4.46,0,0,0,2.26.22l0-.6c.58,0,.69-.42,1.11-.38-.22.18.18.42.65.37-.14-.08-.32-.06-.27-.17.86-.05,1-.46,2-.58a10.89,10.89,0,0,1-1.81-.57c.2-.42.55-.07,1-.12-.06.06-.16.07,0,.15l.49-.21c1,.17-.12.61.75.8.6.33.81-.21,1.28,0l-.09-.11.23,0a0,0,0,0,1,0,0c.56-.07,1.16,0,1.31-.36.06.14.49,0,.67-.15s1.05-.51,1.52,0h0c.7.05,1.25.2,1.1.37l1.12.1-.11.41c1-.13.91-.36,1.61-.79a5.17,5.17,0,0,0,2.49-.15,1.45,1.45,0,0,0,.41,0l-.43-.15c.8,0,.7-.21,1.22-.22-.11,0-.12-.06.17,0l.31,0s-.15,0-.26,0l.09.13c.65.42,1-.26,1.66-.13a.93.93,0,0,1-.24.05c.38.1,1,.66,1.1.3.09,0,.22,0,.35-.12l.28.06-.27-.06c.17-.12.33-.27.36-.18l1,0a1.31,1.31,0,0,0,.64-.06l.17.16c.35,0,.36.07.32.11,1.25.56,1.91-.34,3.26.14.25-.29-.31-.4-.35-.55a5.6,5.6,0,0,1,1.34-.59c.61.37,2.44.67,2.16,1.23,1.11,0-.35-.33.2-.54l.13,0a1.67,1.67,0,0,1-.91-.45c-.09-.3.88-.41,1.18-.33l-.2.43c1-.18.79-.81,1.41-1.26.82.15.36.55.54.93l.85-.13v.32c.55-.1.67-.41,1.44-.3-.55.32,1.16.27.4.7.43.09.54-.53.76-.11.29-.35-.38-.16-.6-.26-.19-.49.93-.27,1.43-.41.06.26-.33.31.28.47a.61.61,0,0,1,.84-.14c0-.32.68-.08,1-.07-.38-.05-.94-.27-.7-.56a2.33,2.33,0,0,1,1.23-.18l-.47-.14c.58-.49,1,.32,1.79.14a5.64,5.64,0,0,0-.84.46,15.34,15.34,0,0,1,1.69-.59l.69.45c.08-.24.77,0,.76-.33.86.19-.67.41-.75.65,1.07.18.84-.56,1.87-.1l-.32.31c.33,0,1-.19,1.06,0,0-.1-.17-.06-.39-.05.19-.65,1.56-.5,1.41-1.16l-.47,0c.72-.15,1.21-.62,1.77-.4s-.28.46-.53.64c.68,0,.53-.75,1.34-.71-.43-.1-.36-.34-.11-.52-.46,0-1.44-.12-1.26.16l.17,0c0,.18-.29.25-.42.34-.64,0-.3-.29-.44-.42-1.06-.07-.06.67-1,.68l-.13-.12c-.46.19-1.18.23-1.3.65-.44-.42-1.09.2-1.57,0-.12-.94,1.66,0,2.19-.52-.51-.18.28-.46.49-.69l-1.6.47c-.13-.13-.62-.58-.9-.23l.13,0c-.64.13-.45.51-1,.39-.09-.08.08-.24.12-.3-.52-.07-.42.23-.76.32-.51-.07.24-.39-.19-.49-.58.38-.93-.06-1.44,0,.23.53-2,.79-.9,1.23l-1.22.4c-.39-.27.83-.78.47-1.22h1c-.18-.66-2,.5-2.71-.23a2.85,2.85,0,0,1-1.39-.23l.19.59a.91.91,0,0,1-.72-.55,3.48,3.48,0,0,1-.85,0,.57.57,0,0,1,.35-.21c-.39-.32-.5-.19-.63,0a1.42,1.42,0,0,1-.85.15l.29-.23c-.2,0-.44.13-.46.23a1.51,1.51,0,0,0-.37.07,1.51,1.51,0,0,0,.77.58,11.68,11.68,0,0,1-3.16-.51c0-.18.46-.4.33-.42-.52-.07-1.06.24-1,.5l-.28,0a.6.6,0,0,0-.47-.32.48.48,0,0,0-.32-.12c-.16.48-1.14.26-1.35.48a2.65,2.65,0,0,0,.8,0c-.4.33-.76.7-1.09.45.76-.32-.82-.47.33-.63-.83-.58-.42.44-1.27.25l-.56-.23c.07-.34.89-.19.76-.32l-.39.06c.38-.27,1.83-.13,2.71-.54L164,37.52c-2.24.46-5.06,0-6.95.85h.08a.46.46,0,0,0-.07.23L157,38.5l-.37.27a10.26,10.26,0,0,0-1.93-.61c.43.21.43.21.48.47s-.14.49-.79.37c0-.24.39-.24-.09-.43.25.12,0,.29-.24.33-.37-.15-1-.17-1-.42a.54.54,0,0,1,.42.05c.16-.07-.68-.21-.19-.42l-.65.08c-.38-.2.24-.33.09-.46-1.07.19-1.62.76-2.59,1a2.25,2.25,0,0,0,0-.52c-.75-.15-1.6.62-2.45.68.12-.17.44-.11.7-.19a50,50,0,0,1-7.23-.63l-.63.57-.64-.36a31.44,31.44,0,0,0-7,.25c-.77.05-.47-.38-.83-.54-1.68,0-2.08.59-3.68.73.22-.18.59-.66-.1-.68-.13.16-.21.42-.64.32l.22-.17c-.4-.25-.79,0-1.61-.11a9.07,9.07,0,0,0-4,1c-1.29,0,.13-.6-.11-.72.9.2.62-.1.82-.3-.48.16-1.06.26-1.31-.13a3.72,3.72,0,0,0-1.63.28c.34-.13.62.08.31.26-.55-.14-1.94,0-1.86-.48-3.17.1-6.71,0-10.1,0-.57.25.43.1.12.28-.83.33-.66-.18-1.32.09l.27-.27a10.64,10.64,0,0,0-3,.7c.16-.31-.79-.26,0-.44-.47,0-1-1.34-1.4-1.06l.53,1.3c0,.13-.69,0-.62.13a3.11,3.11,0,0,0-1.2-.55c-.13-.33.58-.26,1-.25.06-.55-1.31-.36-.75-.86-.83.09.12.29-.38.49l-.73-.12.56.18c-.6.16-.82.58-1.63.27l-.84.53c-.09-.43-.62-.08-1-.18l.27-.27A2.26,2.26,0,0,1,97,37.77c.33-.37.53.1.67-.26L97,37.38c0,.24-.4.43,0,.58a2.8,2.8,0,0,1-2.38.78c-.66-.42.72-.36.44-.78-1.53-.18-1.87,1.08-2.77,1-1.14-.18-1.07.2-2.23.22.37-.28-.81-.31-1-.58l.46-.29c-.35.08-.69,0-.58-.24.06.39-1.5.35-2.3.53l.13.33a8,8,0,0,1-2.14.21c-1,.1-.77.39-1.53.74a.75.75,0,0,1-.22-1c.26.17.71.08,1.14.18,1.24-.27,2.22-1,3.45-.78.55-.79-.83.08-1.43-.2,0-.05.06-.06.11-.07a.41.41,0,0,1-.16,0c.45-.09,1.17-.21,1.3-.62-.74.08-.55.79-1.47.44-.68.22-1.23-.41-1.65-.47-.46.29-.48.93-1.6.79l.49-.44c-1.26,0-.6.65-1.77.61.41.06-.41.44.38.46a3.12,3.12,0,0,1-1.88.13c-.17.06,0,.15-.07.3.7.32,1.12-.29,1.69.17l.5-.48c.65.19.72.57.31.76.19,0,.35-.08.48,0,.11.73-.78-.27-1,.34l.47,0c.19.47-1.09.4-1.69.36-.67-.23-1.29-.32-1.33-.66l.91-.14c-.47-.27-1.17.15-1.69.13a.33.33,0,0,0-.15-.11.12.12,0,0,1,0,.09.52.52,0,0,1-.3-.14,8.35,8.35,0,0,1-1.57.06l0,.31.06-.17c.42,0,1,.21.67.43-1,.2-1.15-.39-1.37-.66.23-.46.93,0,1.42-.13-.28-.47-1-.06-2-.38.41-.5,1.15,0,1.38-.44-.8-.1-1,.26-1.85.12.11-.24.93-.25.88-.55l-.54-.15c1.32,0-.22-.63.81-.74-.48-.21-.68.4-1.37.07.19.23.74.63.07.82l-.75-.16c-.3-.24.79-.52.31-.74l-.79.17c0,.15.4.23.16.43-.45-.17-.75.57-1.29.79-.42,0-.76-.06-.91-.24-1.07.43-2.43.39-3.42.8.67-.29,0-.52-.42-.75.77,0,.79-.53.74-.83-.47,0-.79.52-.55.68-.79-.2-.55.32-1.24,0-.45-.17.23-.46.08-.64-.85,0-.24.57-1.16.44,0-.06.13-.08.06-.17a1.15,1.15,0,0,0-1.15.34c-.52-.63-1.5,0-1.38-.56-1.21.14.17.33-.07.54a2.7,2.7,0,0,1-1.69-.08c.3,0,.57-.17.86-.07l-.25-.42c-1.49-.33-1,.93-2.41.53.75-.2.25-.31.63-.59-.23.1-1.36-.05-.68.29a8.33,8.33,0,0,1-1.29-.22,3.59,3.59,0,0,0-1.31.52,4.09,4.09,0,0,1-1.67-.56c-1.62.26-3.08-.29-4.78,0l.12,0c-1.31-.1.57.57-.79.52.19-.5-.81-.36-1.24-.64-1.67-.31-2.9.29-4.43-.1,0-.1.12-.23.42-.23a27.37,27.37,0,0,0-3.18-.18l0-.06c-1.69-.46-3.24,0-5,.07.14-.06.18-.25.3-.32a4.93,4.93,0,0,0-2.93.18c-1-.54-.7.13-2-.4-.08-.09.14-.08.23-.1a10,10,0,0,0-1.8-.23c-1.5.27-1.89.91-3.61.66-.06-.7,1.07-.14,1.13-.69a1.46,1.46,0,0,1-1.12.07c.29-.27.07-.17.27-.42-.36-.19-1.49.67-1.48.61,0,.13.1.21.44.2-.42.41-1.69,0-2.54.12.27,0,1.12.19.79.5-1.11-.19-1.51.46-2.3.71-1-.35.78-.55.6-1.05-.16-.18-.56-.58-.12-.76a8.77,8.77,0,0,0-2.44.33l0-.14c-1.16,0-2.42.57-3.38.25l.51.18c-.19.07-.77,0-1.1.28,0-.23-.7-.46-.39-.64-.54.71-2.64.34-3.25,1-.3-.19,0-.48.06-.64.73.09,1,.24,1.36,0-.6,0-1-.22-.94-.38-.63.43-2.08.54-2.4,1-.44-.24-.85-.39-.68-.76-1.87.16.87,1.21-1.23,1.11-1-.41.95-.45-.36-.64l.24,0c-.91-1-.7.66-1.78.58-.12-.54.77-.34,0-.76-1,.09-1.46.86-2.44.65l.16-.22c-.63,0-1.86-.15-2.49-.13,0-.11.07-.09.19-.11-1.16-.26-.5.25-1.44-.16L.07,37a2.77,2.77,0,0,0,2,.23c-.62.28.92.71.6,1.15l.13-.17c1.55.84,3.59,1,5.59,1.41,1.29-.48,2.15.32,3.52,0,.24-.61.26-.11,1.44-.19-.63,0-.1.47.29.56a2.19,2.19,0,0,1,.8-.24c.23.22,1.68.78,2.24.38.7.22-.18.19-.34.31.28.33.59-.22.82,0a.14.14,0,0,1-.09.09c1.09,0,1.73.21,2.86.33.12-.61,1.13-.19,1.64-.39-.17.19.63.26.94.38l.63-.42c.61-.37.82.3,1.61.12l-.18-.12a4.82,4.82,0,0,1,2.6.6c5.28-1,8.09.95,13.63.78.36-.17-.26-.32,0-.58a8.27,8.27,0,0,1,1.21,0c-.45-.18-.38,0-.32-.14l-.79.15c0-.05,0-.06,0-.15a2.93,2.93,0,0,1-.92.12c.49-.14.64-.59,1.3-.4,0,.06-.14.08-.31.11.54,0,.58-.16,1,0s.38,0,.44.17l1.56.28c.79-.51,1.73,0,2,.09-.18.39-1,.09-1.43.48l.56.31,0-.33.8.12,0,.06c.1-.13.2-.25.4-.13,0,0,.11.13,0,.15l.58-.16c-.34.32.5.11.41.49,1.86.25,2.38-.46,4,.11-.26-.19.54-.6,1-.51.29.1.36.19.17.33l.67-.18c.81.62,1.63.25,2.84.48l-.06.17a3,3,0,0,1,1.62-.26l-.13.34c.82.25.64-.7,1.55-.46,0-.37-.57-.57-.65-.92.21.38,1.19.46,1,.19.91-.13.63,0,.7.11l.54-.21c.64,0,.2.48,0,.69.6-.39,1.24-.1,1.92,0l-.28.16.89.08a3.53,3.53,0,0,1,2.15-.12l-.53.47c.53.26.28-.16.42-.24.84-.22,1,.11,1.44.39C67.86,42.51,69.16,43.83,70.31,43.13ZM162.24,41l-.13-.07C162.39,40.84,162.54,40.75,162.24,41Zm-7.33,0c.88-.2.61,0,.68.16-.87-.11-1.35,0-2.12-.09a.68.68,0,0,1,.19.3.82.82,0,0,1-.73-.36C153.3,40.53,155.3,41.29,154.91,41Zm16.42-2.75-.1.11h0ZM167,38.8a.49.49,0,0,0-.31-.19C166.76,38.74,166.84,38.84,167,38.8Zm-8.69-.4c-.2-.19-.66-.12-1-.07A5.24,5.24,0,0,0,158.29,38.4Zm-54.72.72c.26-.08.76-.28.31-.42-.22.17-.64-.13-.82.13l0,0A3.22,3.22,0,0,0,103.57,39.12ZM77.82,40.55c.05-.19.25-.41.12-.56L78,40c-.07-.07-.12-.13-.07-.17a1.17,1.17,0,0,0-.58,0C77.29,40.45,76.85,40.55,77.82,40.55Z" transform="translate(-0.07)"/><path class="cls-1" d="M86.44,38l-.23,0Z" transform="translate(-0.07)"/><path class="cls-1" d="M77.42,39.81s.22.11.52.18C77.88,39.91,77.74,39.85,77.42,39.81Z" transform="translate(-0.07)"/><path class="cls-1" d="M185.57,40l-.25.07.52.18a1.33,1.33,0,0,0,1.07-.85,7.16,7.16,0,0,1-2.2.31Z" transform="translate(-0.07)"/><path class="cls-1" d="M185.07,37.89a1.43,1.43,0,0,0-.43-.31l-.12.2Z" transform="translate(-0.07)"/><path class="cls-1" d="M175,37.25l.81.15C176,37.22,175.09,37,175,37.25Z" transform="translate(-0.07)"/><path class="cls-1" d="M178.65,40.55l.42-.23c-.38-.16-.9-.13-1,.11C178.6,40.29,178.23,40.56,178.65,40.55Z" transform="translate(-0.07)"/><path class="cls-1" d="M172.8,37.27c-.24.39-.81-.15-1,.22C172,37.38,172.77,37.66,172.8,37.27Z" transform="translate(-0.07)"/><path class="cls-1" d="M173.47,40.93c.27.36.68,0,1.2.09C174.24,41,173.63,40.67,173.47,40.93Z" transform="translate(-0.07)"/><path class="cls-1" d="M168.5,38.49c0-.28.38-.27.76-.22-.12.09-.2.22-.37.27a9.15,9.15,0,0,1,1.18-.33c-.52-.18-1.29-.29-1.21-.63C168.49,37.85,168,38.24,168.5,38.49Z" transform="translate(-0.07)"/><path class="cls-1" d="M172.24,41c.43.09.69.34,1.2.31-.09-.19-.27-.47-.86-.41l.2-.33C172.22,40.36,173,41,172.24,41Z" transform="translate(-0.07)"/><path class="cls-1" d="M166.14,37.79l.26.14c.59-.27,1.36-.16,1.69-.57A5.54,5.54,0,0,0,166.14,37.79Z" transform="translate(-0.07)"/><path class="cls-1" d="M170.14,40.47l-.07.45c.59,0,0-.15.16-.26a.7.7,0,0,0,.55,0C170.1,40.75,170.73,40.3,170.14,40.47Z" transform="translate(-0.07)"/><path class="cls-1" d="M168.19,41l-.75.21.6.48C168.93,41.51,168.08,41.42,168.19,41Z" transform="translate(-0.07)"/><path class="cls-1" d="M167.25,40.73l-.09-.08-1.13.69A4.34,4.34,0,0,0,167.25,40.73Z" transform="translate(-0.07)"/><path class="cls-1" d="M153.32,38.1c-.13.2.55.43.26.22C153.7,38.15,152.8,37.92,153.32,38.1Z" transform="translate(-0.07)"/><path class="cls-1" d="M156.12,41.67a4.42,4.42,0,0,0-1.85.29C154.82,41.86,156.21,41.93,156.12,41.67Z" transform="translate(-0.07)"/><path class="cls-1" d="M154.08,42l.19-.06A.38.38,0,0,0,154.08,42Z" transform="translate(-0.07)"/><path class="cls-1" d="M134.41,43.3a.34.34,0,0,0-.14.05Z" transform="translate(-0.07)"/><path class="cls-1" d="M134.88,43.18c.32.06,1-.06,1.05-.27a8.51,8.51,0,0,0-1.52.39C134.63,43.28,134.9,43.42,134.88,43.18Z" transform="translate(-0.07)"/><path class="cls-1" d="M130.36,43.13c.23-.13.55-.07.47-.25S130.2,43,130.36,43.13Z" transform="translate(-0.07)"/><path class="cls-1" d="M99.92,37.57c-.43-.11-.68,0-.57.25C99.84,37.82,99.57,37.65,99.92,37.57Z" transform="translate(-0.07)"/><polygon class="cls-1" points="98.73 37.88 98.67 37.74 98.39 37.52 98.73 37.88"/><path class="cls-1" d="M95.81,37.46a.28.28,0,0,1,.18-.12C95.82,37.37,95.67,37.41,95.81,37.46Z" transform="translate(-0.07)"/><path class="cls-1" d="M96.07,37.32l-.08,0Z" transform="translate(-0.07)"/><path class="cls-1" d="M96.27,37.41l0-.15-.23.06A.18.18,0,0,1,96.27,37.41Z" transform="translate(-0.07)"/><path class="cls-1" d="M94.91,37.4l.57.43c.59-.2-.68-.22-.09-.68Z" transform="translate(-0.07)"/><path class="cls-1" d="M92.92,37.5c-.54-.14-1.33.53-1.64,0-1.54.25.35.85-1.42,1,1.67.28.86-1,2.34-.67C91.49,37.55,92.68,37.62,92.92,37.5Z" transform="translate(-0.07)"/><path class="cls-1" d="M93.18,38.36c.09-.26-.6-.28-.82-.12C92.56,38.27,92.9,38.63,93.18,38.36Z" transform="translate(-0.07)"/><polygon class="cls-1" points="89.84 37.71 89.37 37.51 89.24 37.67 89.84 37.71"/><path class="cls-1" d="M88.12,37.59l.46-.29C88.43,37.41,87.74,37.38,88.12,37.59Z" transform="translate(-0.07)"/><path class="cls-1" d="M85.63,37.2c-.43-.1-.83.58.08.44l-.2,0C85.56,37.5,85.07,37.26,85.63,37.2Z" transform="translate(-0.07)"/><path class="cls-1" d="M79.85,38.2c.3,0,.65-.06.59-.2l-.81.13Z" transform="translate(-0.07)"/><path class="cls-1" d="M80,39.86c.27.42.77,0,1.31.12A4.64,4.64,0,0,0,80,39.86Z" transform="translate(-0.07)"/><path class="cls-1" d="M78.93,37.6c.22-.16.56-.05.77,0C79.6,37.34,79,37.4,78.93,37.6Z" transform="translate(-0.07)"/><path class="cls-1" d="M77.63,37.73c-.27-.17.06-.23-.14-.35a1.82,1.82,0,0,0-1.5,0c.15.18.35.66.11.86.92-.13,1.39-.89,1.83-.3l.77-.71C78,37.16,78.13,37.78,77.63,37.73Z" transform="translate(-0.07)"/><path class="cls-1" d="M79.46,39.12,79,38.87c.09.24-.28.28-.54.35C78.55,39.75,79.18,39.15,79.46,39.12Z" transform="translate(-0.07)"/><polygon class="cls-1" points="72.5 37.98 71.46 38.08 71.8 38.12 72.5 37.98"/><polygon class="cls-1" points="71.84 37.8 71.81 37.65 71.02 37.91 71.84 37.8"/><polygon class="cls-1" points="70.75 37.6 70.88 37.63 71.49 37.51 70.75 37.6"/><path class="cls-1" d="M68.66,37.46l.19.22c.26,0,.78.21.74-.09A1.11,1.11,0,0,1,68.66,37.46Z" transform="translate(-0.07)"/><path class="cls-1" d="M61.39,43c.19-.14.08-.27,0-.41l-.31.38C61.14,42.92,61.32,42.89,61.39,43Z" transform="translate(-0.07)"/><path class="cls-1" d="M60.15,42.34l-.78.41c.88.09,1-.25,1.79-.3-.33-.15-.79.16-1.2,0Z" transform="translate(-0.07)"/><path class="cls-1" d="M44.72,41.63c.08-.28-.1-.24.48-.41a14,14,0,0,1-2.37.09c.15.18-.53.46-.18.4l1-.14-.16.18C44.2,42,44,41.46,44.72,41.63Z" transform="translate(-0.07)"/><path class="cls-1" d="M4.54,37.24c.1-.13,0-.25-.13-.38C3.8,37,4.66,37.22,4.54,37.24Z" transform="translate(-0.07)"/></g></g></svg>