<svg xmlns="http://www.w3.org/2000/svg" viewBox="0 0 525.84 613.93"><defs><style>.cls-1{fill:none;stroke:#000;stroke-miterlimit:10;}</style></defs><g id="레이어_2" data-name="레이어 2"><g id="Layer_1" data-name="Layer 1"><path class="cls-1" d="M523.88.8c-9.44-1.9-17.71,5.8-25.49,10-17.76,10.53-39.15,13.07-57.06,23.42-18.52,11.18-37.75,21.1-55.94,32.83-28.33,19.63-49.94,47-74.14,71.15-23.82,8.48-49.09,34.57-56.33,59-3.8,15.45.86,31.3-1,46.91.64,12.05-18.56,42.28-3.58,48.18-5.51,14.45-13.17,28.17-13,44.21-11.92-18.38-18.11-39.81-29.46-58.65-6.44-10.75-7.89-24.57-17.2-33.43-25.49-15.54-44.71-39.4-71-54.1-11.4-6.94-22-15.75-35.51-18.14-3.48-1-7.19-2.08-9.74-4.77a1.94,1.94,0,0,0-2.5-.38c-1-1.25-3.38-1.32-3.8.69-3.1,31,33.2,49.52,53.36,67.14a218.08,218.08,0,0,0-96.62,3.94C20.3,239.77-3.74,245,1.15,251.3c8.3,12,39.5,2.41,53.57,4.94,19,2,37.29-12.07,55.91-5.27,20.43,12.18,22.13,22.14,49.82,19.67,7.13,8.32,17.86,12.9,24.51,21.81,21.67,29.1,40.1,61.35,48,97.08-23.21,3.39-75.76,7.41-80.31,35.79-2.29,5.74-.2,13.41-.89,19.75-1.07,14.89.75,31.16,15.21,39.11-.68,6.92,3.06,13.55,4.63,20.19,3.75,14.1,5.7,28.63,8.37,42.94A175.71,175.71,0,0,1,183.51,565c4.58,14.84,6.34,35.38,24.29,39.67,25.21,10.45,69.64,13.76,92.75-2.48,7.14-7.51,7.68-18,11.08-27.37,3.22-8.39,5.1-17.81,8.45-25.92a6.42,6.42,0,0,1,.39-2,1.9,1.9,0,0,0-.39-.11c4.51-21.17,13.79-41.34,17.28-62.62C345,479.51,350.5,472,351,462.93c.7-11.23,6.75-25.13,2.38-35.52,4.46-27.54-63-35.45-82.53-36,1.84-57.72,21-77.5,72.64-99.35,12.5-4.4,24.9-10.24,31.11-22.68,2.05-3.71,8.36-12.33,2.13-14.56a2.26,2.26,0,0,0-2.27-.22c-8,3.54-16.81,4.18-25.39,5.41-20.8,3.6-40.79,10.73-61.08,16.43,12.44-20.79,29.8-38.18,42.29-58.76,5.09-10.66,4.37-22.89,8.51-33.86,3.92-10.41,11.67-18.46,19.09-26.47,16.48-17.79,33.45-35.93,54.13-48.93,41-25.78,82.42-55.64,109.1-96.81C522.29,8.4,528,3.28,523.88.8ZM242.54,329.22c.63-14.06,10.45-25.13,12.57-38.65-.44-3.66-3.32-1.29-5-1.91-3.69-14,7-27.44,7.86-41.4,2.39-14.47-1.56-29,.3-43.53,4.78-25.49,26.51-44.88,47.62-58-7.4,10-11.44,22.07-14.39,34.07-9.29,21.57,12.63,35.13,1.16,55.2-7.86,15.13-15,30.92-18.53,47.7-4.38,2-9,4.92-10.2,9.88C243.86,307.89,239.27,350,254,371.07c-.27,1.45-.53,2.89-.79,4.33C247.25,360.57,238.47,345.85,242.54,329.22Zm20.75,3a38.41,38.41,0,0,1,2.55-10.86c.38.84.76,1.68,1.11,2.54A18.42,18.42,0,0,0,263.29,332.18Zm5.22-2.47c.56,5-.69,9.86-1.93,14.87C266.57,339.48,266.73,334.67,268.51,329.71ZM262.93,313a19.77,19.77,0,0,0,.75,3c-7.7,14.7-5,32.53-8.53,48.44-10.45-20.73-5.51-48,8-66.14C262.94,303.3,262.08,308.12,262.93,313Zm-2.54,45.78c.66-5.14,1.23-10.3,1.76-15.46.35,3.21-.27,8,2.46,10-.75,8.17-3.64,15.45-7.06,22.81C258.62,370.39,259.64,364.65,260.39,358.82Zm-158-143.65C89.67,203.69,71.88,190.9,72,172.06c4.69,4.32,11.64,5.24,17.55,7,15.69,6.12,29,17.38,43.3,26.19,14.55,9.79,26.75,22.45,40,33.75,6.21,4.82,14.24,7.19,18.62,14.09,10.94,25.42,24.56,49.6,35.15,75.21,2.23,4.39,5.42,8.22,7.57,12.64,1.82,3.76,1.89,8.15,4.82,11.37,4,11,9.4,21.74,12.69,32.71-.47,5-.4,10,1.42,14.77-.2,1.44-.43,2.86-.7,4.31C222.27,285.56,191,284,102.4,215.17Zm37.65,50.67c-24.14-11.54-24.59-27.09-57.41-17.55-13.19,4.62-27,4.7-40.8,4.17-12.05-.22-25.17,4.2-36.46-1.58,38.85-16.57,84.94-18.25,125.46-8.34,11.67,8.35,23.68,16.33,35.11,25C157.4,266.47,148.43,268.35,140.05,265.84Zm87,90.72a185.44,185.44,0,0,0-15.8-31.41C199.4,305,187.09,284.88,167.06,272c2.15.05,4.3,1.95,6.36,1.31,31.61,23.45,53.53,57,63.2,95.12,5.82,17.62,13.65,35.27,13.51,54.15a20.17,20.17,0,0,0-6.07,1.75A305.5,305.5,0,0,0,227,356.56Zm95.42,166C317,541.64,312,560.83,305.5,579.63c-3.34,14.06-5.76,22.43-21.46,25.74-26.65,6.14-55.37,4.61-80.26-7.16-18-8.73-23-86.28-32.55-110.54,33.67,18.12,73.52,19.54,110.46,12.74,17-2.56,35.52-4.18,50.87-12.56C329.91,499.6,326,511,322.44,522.52Zm24.78-63.1c-1.1,28.5-36.82,32-58.75,35.56-21.62,3.29-43.78,7.11-65.65,3.93-22.2-4-48.09-8.43-63.18-26.75-6.27-11.55-2.62-25.61-3.55-38.21,31,32.14,162.62,30.56,194.35-.49C350.48,442.18,348.37,450.8,347.22,459.42Zm-6.69-47.24c28,16.4-8,30.37-23.87,34.58-29.29,7.28-59.88,8.14-89.91,6.45-20.92-2.82-43.34-4.11-61.61-15.78-23.43-13.58,4.14-31.2,19.58-34.57-15,4.66-34.36,23.54-14.59,35.63,24.46,13.09,53.83,13.25,81,13.8,18.08,2.09,124.9-8.85,87.32-41.38C339.11,411.33,339.83,411.75,340.53,412.18ZM278.67,395.8c20.78,1.25,36.91,4.7,54.35,16.73,38.41,24.54-60.35,37.24-74.48,35.31-17.45-.12-98.7.71-91.71-26.61,9.79-17.13,48-27,66.84-27.84,2.58,11.36,5.41,22.71,6.33,34.34-.93,2.06,2.48,3.81,4.07,1.76,1.71-2.22,6.22-2.69,8.77-2.88,6-1.88,12.27,8.52,14.19,2.69,2.51-10.42,1.62-22.89,3.58-33.93C273.2,395,276.24,395.6,278.67,395.8ZM293.82,280c18.55-4.95,36.74-11.65,55.71-14.88,8.63-1.29,17.18-2,25.34-5.2-5.69,17.15-19.38,24.15-35.27,29.88-74.15,30.36-70.48,64.22-75.94,135.56a16.58,16.58,0,0,0-8.9-3.16,258.74,258.74,0,0,1,6.84-44.61c3.54-7.39,6.59-14.78,7.21-23.07,1.33-8,4.69-15.7,4.33-23.86-2.52-11.8-8.63-19.95-5.39-32.83C267.49,285.08,284.81,284.18,293.82,280Zm38.68-89.63c-1.37,5.89-1.91,11.93-3.28,17.81-2.72,11.66-10.68,20.44-18.13,29.41-8.06,10-15.16,20.68-22.63,31.11,13.22-28.18,22.92-59.53,45.1-82.25C333.16,187.77,332.8,189.07,332.5,190.39Zm144-134.11c-27.15,26.52-61.46,43.2-90.39,67.3-17.25,16.87-36.32,33.26-48.91,54C320.43,190.37,309.83,210,301.54,229c-6.78,15.79-15.22,30.91-20.42,47.34-1.25.79-.69,2.65-1.23,3.85l-.81.32c3.9-18.48,14.08-34.55,20.73-51.92,3.95-23.69-13.88-25.42-2-55.28,4.62-20.4,19.59-35.11,34.07-49.15,15-15.83,29.41-32.39,46.67-45.83,22.71-16.65,48-29.59,72.56-43.26,13.21-6.1,27.5-9.43,40.86-15.17C501.71,16,509.52,8,519.87,5.65,509.49,25.49,493.06,41.52,476.48,56.28Z"/></g></g></svg>